<?xml version="1.0" encoding="UTF-8" standalone="no"?>
<svg width="90px" height="36px" viewBox="0 0 90 36" version="1.1" xmlns="http://www.w3.org/2000/svg" xmlns:xlink="http://www.w3.org/1999/xlink">
    <!-- Generator: Sketch 3.7.2 (28276) - http://www.bohemiancoding.com/sketch -->
    <title>cds-logo</title>
    <desc>Created with Sketch.</desc>
    <defs>
        <polygon id="path-1" points="35.5030892 35.4545455 0 35.4545455 0 0.489490909 35.5030892 0.489490909 35.5030892 35.4545455"></polygon>
    </defs>
    <g id="Symbols" stroke="none" stroke-width="1" fill="none" fill-rule="evenodd">
        <g id="header-cmpct" transform="translate(-20.000000, -12.000000)">
            <g id="header-compact">
                <g id="header">
                    <g id="cds-logo" transform="translate(20.000000, 12.000000)">
                        <g id="cds-icon">
                            <path d="M17.7512123,9.05596364 C12.7278277,9.05596364 8.64044308,13.0808727 8.64044308,18.0281455 C8.64044308,22.9759636 12.7278277,27.0003273 17.7512123,27.0003273 C22.7745969,27.0003273 26.8614277,22.9759636 26.8614277,18.0281455 C26.8614277,13.0808727 22.7745969,9.05596364 17.7512123,9.05596364 M17.7512123,13.4196 C20.3354585,13.4196 22.4306585,15.4819636 22.4306585,18.0281455 C22.4306585,20.5737818 20.3354585,22.6366909 17.7512123,22.6366909 C15.1664123,22.6366909 13.0712123,20.5737818 13.0712123,18.0281455 C13.0712123,15.4819636 15.1664123,13.4196 17.7512123,13.4196" id="Fill-1" fill="#FEFEFE"></path>
                            <g id="Group-5" transform="translate(0.000000, 0.055964)">
                                <mask id="mask-2" fill="white">
                                    <use xlink:href="#path-1"></use>
                                </mask>
                                <g id="Clip-4"></g>
                                <path d="M17.7512123,3.76221818 C9.79576615,3.76221818 3.32296615,10.1369455 3.32296615,17.9724 C3.32296615,25.8073091 9.79576615,32.1820364 17.7512123,32.1820364 C25.7072123,32.1820364 32.1800123,25.8073091 32.1800123,17.9724 C32.1800123,10.1369455 25.7072123,3.76221818 17.7512123,3.76221818 M17.7512123,35.4547636 C7.96308923,35.4547636 -0.000110769231,27.6122182 -0.000110769231,17.9724 C-0.000110769231,8.33203636 7.96308923,0.489490909 17.7512123,0.489490909 C27.5393354,0.489490909 35.5030892,8.33203636 35.5030892,17.9724 C35.5030892,27.6122182 27.5393354,35.4547636 17.7512123,35.4547636" id="Fill-3" fill="#FEFEFE" mask="url(#mask-2)"></path>
                            </g>
                            <path d="M21.8063631,20.3214 C21.8767015,20.2008545 21.9415015,20.0764909 22.0007631,19.9488545 L26.1307938,21.5317636 C25.9519015,21.9424909 25.7419938,22.3357636 25.5060554,22.7126727 L21.8063631,20.3214 Z M25.5891323,13.4715818 C25.9690708,14.1010364 26.2687015,14.7806727 26.4841477,15.4957636 L22.1984862,16.6003091 C22.1065477,16.3210364 21.9891323,16.0537636 21.8473477,15.8012182 L25.5891323,13.4715818 Z M26.6325785,20.0006727 C26.5522708,20.3503091 26.4520246,20.6912182 26.3312862,21.0234 L22.2040246,19.4421273 C22.2333785,19.3532182 22.2560862,19.2615818 22.2799015,19.1704909 L26.6325785,20.0006727 Z M19.8607015,13.9183091 C19.5826708,13.7797636 19.2891323,13.6684909 18.9823015,13.5861273 L19.8928246,9.31849091 C20.6682092,9.50285455 21.4048246,9.78267273 22.0893785,10.1481273 L19.8607015,13.9183091 Z M22.00464,25.9554 C21.3228554,26.3104909 20.5884554,26.5783091 19.8186092,26.7544909 L18.94464,22.4797636 C19.2481477,22.4012182 19.5394708,22.2937636 19.81584,22.1590364 L22.00464,25.9554 Z M15.6880246,13.8964909 L13.5031015,10.1061273 C14.1843323,9.75049091 14.9148554,9.47394545 15.6847015,9.29721818 L16.5592246,13.5763091 C16.2551631,13.6548545 15.9643938,13.7623091 15.6880246,13.8964909 L15.6880246,13.8964909 Z M15.6099323,26.7424909 C14.8345477,26.5581273 14.1007015,26.2712182 13.4167015,25.9041273 L15.6426092,22.1388545 C15.92064,22.2774 16.2147323,22.3886727 16.5210092,22.4704909 L15.6099323,26.7424909 Z M13.50144,16.1061273 L9.36697846,14.5215818 C9.54531692,14.1103091 9.75411692,13.7143091 9.99060923,13.3368545 L13.6969477,15.7324909 C13.6260554,15.8535818 13.5612554,15.9784909 13.50144,16.1061273 L13.50144,16.1061273 Z M9.91251692,22.5850364 C9.53313231,21.9555818 9.23184,21.2759455 9.01694769,20.5597636 L13.3026092,19.4557636 C13.3951015,19.7350364 13.5125169,20.0028545 13.6548554,20.2559455 L9.91251692,22.5850364 Z M8.86962462,16.0543091 C8.94993231,15.7052182 9.04796308,15.3632182 9.16814769,15.0310364 L13.2981785,16.6134 C13.2688246,16.7023091 13.2461169,16.7939455 13.2223015,16.8850364 L8.86962462,16.0543091 Z M29.3181785,27.9544909 C31.4815015,25.5130364 32.8627938,22.3854 33.0738092,18.9495818 L26.8131323,18.9495818 C26.7954092,19.1235818 26.7682708,19.2943091 26.7400246,19.4655818 L22.3856862,18.6337636 C22.4122708,18.4352182 22.4305477,18.2344909 22.4305477,18.0283091 C22.4305477,17.7195818 22.3984246,17.4190364 22.3397169,17.1266727 L26.6253785,16.0226727 C26.7084554,16.3766727 26.7749169,16.7372182 26.8131323,17.1059455 L32.1461169,17.1059455 C31.9378708,13.9215818 30.6595938,11.0203091 28.6629785,8.74630909 L24.8863015,12.4663091 C25.0280862,12.6424909 25.1626708,12.8252182 25.2911631,13.0123091 L21.5482708,15.3419455 C21.2187323,14.8908545 20.8111015,14.4986727 20.3408862,14.1904909 L22.5690092,10.4208545 C22.9240246,10.6390364 23.2629785,10.8795818 23.5825477,11.1430364 L28.5621785,6.2394 C25.9563323,3.91903636 22.5762092,2.4294 18.85104,2.18176364 L18.85104,9.12812727 C19.0194092,9.14830909 19.1855631,9.17667273 19.3511631,9.20558182 L18.4400862,13.4748545 C18.2146708,13.4421273 17.9859323,13.4197636 17.7511015,13.4197636 C17.5306708,13.4197636 17.3152246,13.4399455 17.1025477,13.4688545 L16.2280246,9.19030909 C16.47504,9.1494 16.7253785,9.11558182 16.97904,9.09430909 L16.97904,2.92630909 C13.4261169,3.10085455 10.18944,4.47267273 7.67165538,6.63703636 L12.1029785,11.0012182 C12.3943015,10.7737636 12.7027938,10.5670364 13.0212554,10.3755818 L15.2056246,14.1637636 C14.73984,14.4621273 14.3338708,14.8401273 14.0021169,15.2775818 L10.29744,12.8830364 C10.4442092,12.6779455 10.5970708,12.4772182 10.7599015,12.2852182 L5.78027077,7.38049091 C3.39042462,9.98503636 1.86624,13.3734 1.64857846,17.1064909 L8.68851692,17.1064909 C8.70679385,16.9324909 8.73448615,16.7612182 8.76273231,16.5899455 L13.1165169,17.4212182 C13.0899323,17.6203091 13.0716554,17.8221273 13.0716554,18.0283091 C13.0716554,18.3364909 13.1032246,18.6375818 13.1619323,18.9283091 L8.87682462,20.0328545 C8.79430154,19.6783091 8.72728615,19.3188545 8.68851692,18.9501273 L3.35664,18.9501273 C3.57042462,22.2157636 4.90685538,25.1830364 6.99208615,27.4821273 L10.7599015,23.7714 C10.56384,23.5395818 10.3832862,23.2952182 10.21104,23.0448545 L13.9539323,20.7152182 C14.2834708,21.1663091 14.6916554,21.5584909 15.1624246,21.8666727 L12.9381785,25.6286727 C12.6496246,25.4508545 12.3688246,25.2626727 12.1029785,25.0554 L7.67165538,29.4195818 C10.1899938,31.5828545 13.4266708,32.9552182 16.9801477,33.1292182 L16.9801477,26.9623091 C16.6999015,26.9388545 16.4251938,26.8990364 16.1527015,26.8515818 L17.0632246,22.5812182 C17.28864,22.6144909 17.5168246,22.6368545 17.7511015,22.6368545 C17.97264,22.6368545 18.1880862,22.6166727 18.4013169,22.5872182 L19.2752862,26.8619455 C19.1346092,26.8854 18.9944862,26.9115818 18.8515938,26.9284909 L18.8515938,33.8737636 C22.5773169,33.6261273 25.9563323,32.1364909 28.5627323,29.8166727 L23.5831015,24.9124909 C23.2386092,25.1966727 22.8708554,25.4535818 22.4859323,25.6848545 L20.29824,21.8912182 C20.7640246,21.5928545 21.1699938,21.2148545 21.5011938,20.7768545 L25.2025477,23.1692182 C25.1000862,23.3115818 24.9965169,23.4528545 24.8863015,23.5897636 L29.3181785,27.9544909 Z" id="Fill-6" fill="#ED2527"></path>
                        </g>
                        <g id="cds" transform="translate(42.000000, 10.000000)" fill="#FEFEFE">
                            <path d="M14.7801974,11.0711793 C13.6892883,14.9926966 10.3274182,17.5251103 6.38892468,17.5251103 C1.25292468,17.5251103 -0.716945455,13.8264207 0.22934026,8.98628276 C1.18996364,4.07104138 4.3536,-6.20689655e-05 9.73895065,-6.20689655e-05 C14.1019636,-6.20689655e-05 16.0905351,2.58138621 15.6099117,6.82628276 L10.674639,7.07455862 C11.0056519,5.63455862 10.8117818,3.82214483 9.04139221,3.82214483 C6.72305455,3.82214483 5.9294961,7.37248966 5.61406753,8.98628276 C5.27931429,10.6987655 4.81178182,13.6029724 7.17998961,13.6029724 C8.80076883,13.6029724 9.7003013,12.1884207 10.0518857,10.7732483 L14.7801974,11.0711793 Z" id="Fill-1"></path>
                            <path d="M21.730161,13.3545724 C22.4283429,13.3545724 22.8672,13.4042276 23.5834597,13.0566414 C24.110213,12.7835379 24.557174,12.4111241 24.9230961,11.9400207 C25.7154078,10.9469172 26.1380571,9.80484828 26.3618494,8.66277931 C26.5843948,7.52133103 26.5513558,6.03167586 26.0127584,5.08884828 C25.3893818,4.07091724 24.5814857,4.12057241 23.385226,4.12057241 L22.7867844,4.12057241 L20.9821091,13.3545724 L21.730161,13.3545724 Z M18.2828883,0.248089655 L24.590213,0.248089655 C27.0587844,0.248089655 28.9650701,0.570848276 30.466161,2.33298621 C31.9304727,4.02126207 32.2976416,6.35505517 31.8220052,8.78753793 C31.3856416,11.0214 30.1314078,13.3545724 28.2456935,14.9683655 C26.2060052,16.7305034 23.9799273,17.2767103 21.6117195,17.2767103 L14.9553039,17.2767103 L18.2828883,0.248089655 Z" id="Fill-4"></path>
                            <path d="M36.2620052,11.4682345 C36.4147325,12.9820966 37.4551481,13.5283034 38.976187,13.5283034 C39.6488104,13.5283034 41.0146286,13.4289931 41.1991481,12.4861655 C41.4023688,11.4434069 40.1200831,11.2447862 39.3763948,11.0958207 C36.2813299,10.475131 32.6370701,9.60616552 33.4275117,5.55988966 C33.7529143,3.89706207 34.8955636,2.25844138 36.4564987,1.29078621 C38.0417455,0.322510345 39.9243429,-0.000248275862 41.6199273,-0.000248275862 C44.5865766,-0.000248275862 47.2153558,1.21568276 47.6853818,4.17016552 L43.0904727,5.4854069 C42.8392519,4.21982069 41.9789922,3.77292414 40.6580571,3.77292414 C39.9598753,3.77292414 38.9238234,3.97154483 38.7486545,4.86471724 C38.5747325,5.75913103 39.7865766,5.93230345 40.406213,6.08126897 C41.9634078,6.40464828 43.6303169,6.67713103 44.976187,7.44678621 C46.4716675,8.34057931 47.0333299,9.92954483 46.6699013,11.7909931 C45.8694857,15.8869241 41.4609662,17.5255448 37.920187,17.5255448 C34.330161,17.5255448 31.430213,16.035269 31.2307325,12.3365793 L36.2620052,11.4682345 Z" id="Fill-6"></path>
                        </g>
                    </g>
                </g>
            </g>
        </g>
    </g>
</svg>