<?xml version="1.0" encoding="UTF-8" standalone="no"?>
<svg width="94px" height="60px" viewBox="0 0 94 60" version="1.1" xmlns="http://www.w3.org/2000/svg" xmlns:xlink="http://www.w3.org/1999/xlink">
    <!-- Generator: Sketch 3.7.2 (28276) - http://www.bohemiancoding.com/sketch -->
    <title>excess-idle-icon</title>
    <desc>Created with Sketch.</desc>
    <defs></defs>
    <g id="Health-&amp;-Status-Monitoring-New" stroke="none" stroke-width="1" fill="none" fill-rule="evenodd">
        <g id="reports" transform="translate(-671.000000, -181.000000)" fill="#696969">
            <g id="Excess-Idle-Card" transform="translate(551.000000, 139.000000)">
                <g id="excess-idle-icon" transform="translate(120.000000, 42.000000)">
                    <path d="M10.2283255,55 C12.3324368,36.4566549 27.9088912,22.0483403 46.8324908,22.0483403 C56.1376458,22.0483403 64.6208557,25.5476595 71.1037747,31.2945943 C71.1037759,31.2945947 84.000002,24.7838749 84,24.7838754 C75.6881351,17.4502265 64.8188039,13 52.9136404,13 C28.7297626,13 8.82111736,31.3436996 6,55 L10.2283255,55 Z" id="Fill-1"></path>
                    <polygon id="Fill-3" points="13 28 6.64733333 28 13 21.444 13 16 0 16 0 20 8.58866667 20 0 28.868 0 32 13 32"></polygon>
                    <polygon id="Fill-5" points="36 37 21 37 21 40.6 29.56125 40.6 21 51.9148 21 55 36 55 36 51.4 26.02125 51.4 36 38.224"></polygon>
                    <polygon id="Fill-7" points="26 9.75114558 21.112782 9.75114558 26 4.42650687 26 0 16 0 16 3.25343673 22.6071429 3.25343673 16 10.4568206 16 13 26 13"></polygon>
                    <path d="M93.7964279,26.898329 C93.3825032,26.0995735 92.4462451,25.7745388 91.6611023,26.165272 L50.3737613,46.4833979 C49.7955809,46.3070493 49.1944046,46.1825679 48.5636623,46.1825679 C44.9434642,46.1825679 42,49.2807709 42,53.091284 C42,56.901797 44.9434642,60 48.5636623,60 C51.5432627,60 54.0366659,57.8872745 54.8349492,55.0207452 L93.2412432,29.1908609 C93.970539,28.699851 94.2136376,27.6970844 93.7964279,26.898329" id="Fill-10"></path>
                </g>
            </g>
        </g>
    </g>
</svg>