<?xml version="1.0" encoding="UTF-8" standalone="no"?>
<svg width="100px" height="60px" viewBox="0 0 100 60" version="1.1" xmlns="http://www.w3.org/2000/svg" xmlns:xlink="http://www.w3.org/1999/xlink">
    <!-- Generator: Sketch 3.7.2 (28276) - http://www.bohemiancoding.com/sketch -->
    <title>fuel-usage-report-icon</title>
    <desc>Created with Sketch.</desc>
    <defs></defs>
    <g id="Health-&amp;-Status-Monitoring-New" stroke="none" stroke-width="1" fill="none" fill-rule="evenodd">
        <g id="reports" transform="translate(-314.000000, -181.000000)" fill="#696969">
            <g id="Fleet-Report-Card" transform="translate(190.000000, 139.000000)">
                <g id="fuel-usage-report-icon" transform="translate(124.000000, 42.000000)">
                    <path d="M31.9982463,18.974359 C31.9982463,19.9651282 31.2473541,20.7692308 30.3221477,20.7692308 L8.53286567,20.7692308 C7.60765924,20.7692308 6.85676706,19.9651282 6.85676706,18.974359 L6.85676706,6.41025641 C6.85676706,5.41948718 7.60765924,4.61538462 8.53286567,4.61538462 L30.3221477,4.61538462 C31.2473541,4.61538462 31.9982463,5.41948718 31.9982463,6.41025641 L31.9982463,18.974359 L31.9982463,18.974359 Z M52.3659916,24.3257926 C52.4482728,22.7952496 52.5617119,20.3578069 52.5617119,18.5556265 L53.4020676,16.8168288 C53.4020676,16.8168288 54.7006851,15.3211388 53.8534938,12.4073674 C52.6953883,8.42425935 41.25805,3.98916723 41.1612485,3.91620343 L38.8550133,6.93547175 C42.3785849,9.54689709 45.4789192,12.1170814 46.7566979,14.3823529 L47.3455732,15.5514706 C48.7830742,18.7483032 48.6346454,21.6363122 48.4894433,24.3257919 C48.4426559,25.1674208 48.4007086,25.9785068 48.4007086,26.7607466 C48.4007086,29.6521493 48.8595265,32.4319174 49.6323244,34.9211707 C50.4454563,37.5393834 51.922796,38.3612436 51.922796,41.620859 C51.922796,47.4630536 50.4447799,48.4932298 47.9973694,48.4323824 C45.5499589,48.4932298 43.4261914,46.4742639 43.4261914,44.928448 L43.4261914,32.317411 C43.4261914,26.7607476 41.3275341,23.6782133 36.5694243,23.0769231 L36.5694243,0.991586538 C36.5694243,0.443948415 36.123411,0 35.5619412,0 L3.29307209,0 C2.73665455,0 2.28558902,0.445815325 2.28558902,1.00858239 L2.28558902,55.3846154 L0,55.3846154 L0,60 L38.8550133,60 L38.8550133,55.3846154 L36.5694243,55.3846154 L36.5694243,27.6923077 C38.7641276,28.4270362 38.8550133,29.527447 38.8550133,32.3076923 L38.8550133,44.928448 C38.8550133,48.510463 42.351334,53.0769231 47.9973694,53.0769231 C53.6434048,53.0769231 56,49.5603121 56,41.620859 C56,37.819954 54.4883429,36.3648803 53.6381038,33.6261925 C52.9120931,31.2862604 52.3659916,29.6891681 52.3659916,27.339055 C52.3659916,26.619598 52.3224309,25.0995483 52.3659916,24.3257926 Z" id="Fill-1"></path>
                    <polygon id="Fill-3" points="62 60 71 60 71 55 62 55"></polygon>
                    <polygon id="Fill-5" points="62 51 73 51 73 46 62 46"></polygon>
                    <polygon id="Fill-6" points="62 42 78 42 78 37 62 37"></polygon>
                    <polygon id="Fill-7" points="62 33 83 33 83 28 62 28"></polygon>
                    <polygon id="Fill-8" points="62 24 87 24 87 19 62 19"></polygon>
                    <polygon id="Fill-10" points="62 14 94 14 94 9 62 9"></polygon>
                    <polygon id="Fill-11" points="62 5 100 5 100 0 62 0"></polygon>
                </g>
            </g>
        </g>
    </g>
</svg>