<?xml version="1.0" encoding="utf-8"?>
<!-- Generator: Adobe Illustrator 16.0.0, SVG Export Plug-In . SVG Version: 6.00 Build 0)  -->
<!DOCTYPE svg PUBLIC "-//W3C//DTD SVG 1.1//EN" "http://www.w3.org/Graphics/SVG/1.1/DTD/svg11.dtd">
<svg version="1.1" xmlns="http://www.w3.org/2000/svg" xmlns:xlink="http://www.w3.org/1999/xlink" x="0px" y="0px" width="216px"
	 height="936px" viewBox="0 0 216 936" enable-background="new 0 0 216 936" xml:space="preserve">
<g id="Background" display="none">
	<rect x="-439.82" y="51.285" display="inline" width="1096.185" height="833.431"/>
</g>
<g id="Message_Loco" display="none">
</g>
<g id="Warning_Loco" display="none">
</g>
<g id="Critical_Loco" display="none">
	<g>
		<path display="inline" fill="#FFFFFF" d="M116.874,909.273l7.328,2.093l4.454-8.902c0.857-1.714,1.871-4.769,1.966-9.72
			l34.082-13.092h17.068v-34.717c0.736-0.73,1.363-1.421,1.861-2.002l3.053-3.237v-471.55h5.725V257.93h-5.725v-63.839l-2.738-3.324
			c-0.465-0.563-1.209-1.419-2.176-2.377v-34.609h-16.797l-35.688-13.709c-0.344-1.573-0.918-3.045-1.719-4.406
			c-0.152-0.31-0.329-0.713-0.529-1.154c-2.129-4.698-5.693-12.562-14.424-12.562h-5.453c-2.93,0-5.568,0.759-7.741,2.106
			l-7.329-2.094l-4.455,8.905c-0.855,1.713-1.869,4.767-1.964,9.717l-34.354,13.197H33.766v35.39
			c-0.672,0.708-1.162,1.284-1.424,1.603l-2.734,3.322v63.835h-5.724v21.853l-7.179,7.589v50.858l7.179,7.589v22.327h5.724v334.752
			h-0.756v27.5h0.756v102.671l0.004,6.165l2.73,3.319c0.262,0.318,0.752,0.896,1.424,1.604v35.494h17.825l35.415,13.604
			c0.344,1.572,0.918,3.046,1.719,4.406c0.152,0.31,0.33,0.713,0.529,1.154c2.13,4.698,5.693,12.562,14.425,12.562h5.452
			C112.061,911.379,114.7,910.62,116.874,909.273z"/>
		<polygon display="inline" fill="#FFFFFF" points="12.491,95.509 203.509,95.51 108.688,0 		"/>
	</g>
	<g>
		<rect x="148.621" y="841.527" display="inline" fill="#2F2D2E" width="21.151" height="1"/>
		<rect x="148.621" y="844.612" display="inline" fill="#2F2D2E" width="21.151" height="1"/>
		<rect x="148.621" y="847.697" display="inline" fill="#2F2D2E" width="21.151" height="1"/>
		<rect x="148.621" y="850.782" display="inline" fill="#2F2D2E" width="21.151" height="1"/>
		<rect x="148.621" y="853.867" display="inline" fill="#2F2D2E" width="21.151" height="1"/>
		<rect x="148.621" y="856.952" display="inline" fill="#2F2D2E" width="21.151" height="1"/>
		<rect x="148.621" y="860.037" display="inline" fill="#2F2D2E" width="21.151" height="1"/>
		<rect x="148.621" y="863.122" display="inline" fill="#2F2D2E" width="21.151" height="1"/>
		<rect x="45.83" y="841.527" display="inline" fill="#2F2D2E" width="21.151" height="1"/>
		<rect x="45.83" y="844.612" display="inline" fill="#2F2D2E" width="21.151" height="1"/>
		<rect x="45.83" y="847.697" display="inline" fill="#2F2D2E" width="21.151" height="1"/>
		<rect x="45.83" y="850.782" display="inline" fill="#2F2D2E" width="21.151" height="1"/>
		<rect x="45.83" y="853.867" display="inline" fill="#2F2D2E" width="21.151" height="1"/>
		<rect x="45.83" y="856.952" display="inline" fill="#2F2D2E" width="21.151" height="1"/>
		<rect x="45.83" y="860.037" display="inline" fill="#2F2D2E" width="21.151" height="1"/>
		<rect x="45.83" y="863.122" display="inline" fill="#2F2D2E" width="21.151" height="1"/>
		<rect x="160.846" y="837.41" display="inline" fill="#2F2D2E" width="3" height="30.242"/>
		<rect x="154.018" y="837.41" display="inline" fill="#2F2D2E" width="3" height="30.242"/>
		<rect x="58.2" y="837.41" display="inline" fill="#2F2D2E" width="3" height="30.242"/>
		<rect x="51.373" y="837.41" display="inline" fill="#2F2D2E" width="3" height="30.242"/>
		<rect x="160.846" y="165.781" display="inline" fill="#2F2D2E" width="3" height="30.242"/>
		<rect x="154.018" y="165.781" display="inline" fill="#2F2D2E" width="3" height="30.242"/>
		<rect x="58.2" y="165.781" display="inline" fill="#2F2D2E" width="3" height="30.242"/>
		<rect x="51.373" y="165.781" display="inline" fill="#2F2D2E" width="3" height="30.242"/>
		<path display="inline" fill="#2F2D2E" d="M145.057,197.002v-32.722h26.215v32.722H145.057z M148.057,167.281v26.722h20.215
			v-26.722H148.057z"/>
		<path display="inline" fill="#2F2D2E" d="M44.266,197.002v-32.722h26.215v32.722H44.266z M47.266,167.281v26.722h20.215v-26.722
			H47.266z"/>
		<path display="inline" fill="#2F2D2E" d="M145.057,869.152v-36.376h26.215v36.376H145.057z M148.057,835.776v30.376h20.215
			v-30.376H148.057z"/>
		<path display="inline" fill="#2F2D2E" d="M44.266,869.152v-36.376h26.215v36.376H44.266z M47.266,835.776v30.376h20.215v-30.376
			H47.266z"/>
		<path display="inline" fill="#1E1F21" d="M168.366,193.919c-2.639,0-6.366,0-6.366,0l-13.379-13.38v-14.407h4.972v-3.869
			l-28.842-11.08h-9.245H100.79h-9.245l-28.843,11.08v3.869h4.973v14.407l-13.379,13.38c0,0-3.729,0-6.366,0
			s-6.321,4.479-6.321,4.479h59.182h14.716h59.181C174.686,198.398,171.003,193.919,168.366,193.919z"/>
		<g display="inline">
			<rect x="41.608" y="198.398" fill="#2F2D2E" width="133.078" height="634.665"/>
			<path fill="#BF2026" d="M174.686,833.063H41.608V198.398h133.078V833.063 M176.686,835.063v-2V198.398v-2h-2H41.608h-2v2v634.665
				v2h2h133.078H176.686L176.686,835.063z"/>
		</g>
		<polygon display="inline" fill="#1E1F21" points="41.608,834.93 41.608,718.398 137.456,718.398 144.165,743.398 174.686,743.398 
			174.686,834.93 		"/>
		<rect x="41.608" y="198.398" display="inline" fill="#BF2026" width="133.078" height="12"/>
		<rect x="146.557" y="356.146" display="inline" fill="#BF2026" width="28.129" height="12"/>
		<rect x="146.557" y="739.898" display="inline" fill="#BF2026" width="28.129" height="3.5"/>
		<rect x="40.852" y="714.898" display="inline" fill="#BF2026" width="28.129" height="3.5"/>
		<g display="inline">
			<polygon fill="#2F2D2E" points="147.313,202.148 147.313,193.398 147.313,190.958 114.62,179.847 100.79,180.13 68.981,190.958 
				68.981,193.398 68.981,202.148 68.981,269.93 147.313,269.93 			"/>
			<path fill="#BF2026" d="M143.313,265.93H72.981v-63.782v-8.326l28.51-9.705l12.508-0.256l29.314,9.962v8.325V265.93
				 M147.313,269.93v-67.782v-8.75v-2.44l-32.693-11.11l-13.83,0.283l-31.809,10.827v2.44v8.75v67.782H147.313L147.313,269.93z"/>
		</g>
		<rect x="66.981" y="269.93" display="inline" fill="#BF2026" width="82.332" height="86.216"/>
		<rect x="149.313" y="269.93" display="inline" fill="#DC4E34" width="31.098" height="86.216"/>
		<rect x="35.884" y="269.93" display="inline" fill="#A01D21" width="31.097" height="86.216"/>
		<polygon display="inline" fill="#A01D21" points="149.313,263.458 114.62,252.347 114.62,250.771 100.79,250.771 100.79,252.63 
			66.981,263.458 66.981,269.93 100.79,269.93 106.594,269.93 109.701,269.93 114.62,269.93 149.313,269.93 		"/>
		<polygon display="inline" fill="#A01D21" points="115.505,833.072 147.313,822.244 147.313,356.146 68.981,356.146 
			68.981,822.244 101.674,833.355 101.674,834.93 115.505,834.93 		"/>
		<rect x="64.838" y="423.208" display="inline" fill="#A01D21" width="86.617" height="46.728"/>
		<polygon display="inline" fill="#A01D21" points="37.456,282.898 28.706,292.148 28.706,312.564 28.706,313.039 28.706,333.454 
			37.456,342.704 		"/>
		<g display="inline">
			<rect x="72.956" y="685.398" fill="#BF2026" width="70" height="113.5"/>
			<path fill="#2F2D2E" d="M72.456,799.398v-114.5h71v114.5H72.456z M73.456,685.898v112.5h69v-112.5H73.456z"/>
		</g>
		<circle display="inline" fill="#2F2D2E" cx="107.956" cy="720.898" r="22.5"/>
		<circle display="inline" fill="#2F2D2E" cx="107.956" cy="769.398" r="22.5"/>
		<circle display="inline" fill="#BF2026" cx="107.956" cy="769.398" r="10.5"/>
		<circle display="inline" fill="#BF2026" cx="107.956" cy="720.898" r="10.5"/>
		<path display="inline" fill="#2F2D2E" d="M112.616,151.183c0,0,4.221-2.638,4.572-4.221s0.879-3.868,0-5.275
			s-3.166-7.738-4.572-7.738c-1.407,0-3.342,0-5.453,0c-2.109,0-1.934,1.23-1.934,2.11c0,0.879,0.176,2.11,1.934,2.11
			c1.76,0,3.166-0.88,3.166,1.055s-1.582,3.342-2.989,3.342s-3.869,0-3.869,0l-3.869-5.979l-1.231-0.352c0,0-0.703,1.406-0.703,5.1
			s0.879,4.749,0.879,4.749l3.342,5.1H112.616z"/>
		<path display="inline" fill="#1E1F21" d="M47.929,839.409c2.638,0,6.366,0,6.366,0l13.379,13.38v14.407h-4.973v3.869
			l28.843,11.079h9.245h14.716h9.245l28.842-11.079v-3.869h-4.972v-14.407L162,839.409c0,0,3.728,0,6.366,0
			c2.638,0,6.32-4.479,6.32-4.479h-59.181H100.79H41.608C41.608,834.929,45.292,839.409,47.929,839.409z"/>
		<path display="inline" fill="#2F2D2E" d="M103.679,882.144c0,0-4.222,2.639-4.573,4.221c-0.352,1.584-0.879,3.869,0,5.276
			c0.88,1.407,3.166,7.738,4.573,7.738s3.342,0,5.452,0s1.934-1.231,1.934-2.11s-0.175-2.11-1.934-2.11s-3.166,0.88-3.166-1.056
			c0-1.934,1.582-3.342,2.99-3.342c1.406,0,3.869,0,3.869,0l3.869,5.98l1.23,0.352c0,0,0.703-1.406,0.703-5.1
			s-0.879-4.749-0.879-4.749l-3.342-5.101H103.679z"/>
		<rect x="148.621" y="169.197" display="inline" fill="#2F2D2E" width="21.151" height="1"/>
		<rect x="148.621" y="172.282" display="inline" fill="#2F2D2E" width="21.151" height="1"/>
		<rect x="148.621" y="175.367" display="inline" fill="#2F2D2E" width="21.151" height="1"/>
		<rect x="148.621" y="178.452" display="inline" fill="#2F2D2E" width="21.151" height="1"/>
		<rect x="148.621" y="181.537" display="inline" fill="#2F2D2E" width="21.151" height="1"/>
		<rect x="148.621" y="184.622" display="inline" fill="#2F2D2E" width="21.151" height="1"/>
		<rect x="148.621" y="187.707" display="inline" fill="#2F2D2E" width="21.151" height="1"/>
		<rect x="148.621" y="190.792" display="inline" fill="#2F2D2E" width="21.151" height="1"/>
		<rect x="45.83" y="169.197" display="inline" fill="#2F2D2E" width="21.151" height="1"/>
		<rect x="45.83" y="172.282" display="inline" fill="#2F2D2E" width="21.151" height="1"/>
		<rect x="45.83" y="175.367" display="inline" fill="#2F2D2E" width="21.151" height="1"/>
		<rect x="45.83" y="178.452" display="inline" fill="#2F2D2E" width="21.151" height="1"/>
		<rect x="45.83" y="181.537" display="inline" fill="#2F2D2E" width="21.151" height="1"/>
		<rect x="45.83" y="184.622" display="inline" fill="#2F2D2E" width="21.151" height="1"/>
		<rect x="45.83" y="187.707" display="inline" fill="#2F2D2E" width="21.151" height="1"/>
		<rect x="45.83" y="190.792" display="inline" fill="#2F2D2E" width="21.151" height="1"/>
		<polygon display="inline" fill="#BF2026" points="41.608,83.509 174.686,83.51 108.626,16.971 		"/>
	</g>
</g>
<g id="yellow">
	<g>
		<path fill="#FFFFFF" d="M116.541,909.273l7.326,2.094l4.456-8.902c0.857-1.713,1.873-4.768,1.967-9.721l34.08-13.092h17.07
			v-34.713c0.809-0.805,1.484-1.559,2.006-2.176l2.908-3.283V368.146h5.725V257.931h-5.725v-63.839l-2.738-3.324
			c-0.465-0.563-1.209-1.419-2.176-2.377v-34.61h-16.797l-35.688-13.709c-0.344-1.574-0.918-3.048-1.719-4.407
			c-0.151-0.31-0.328-0.711-0.527-1.151c-2.13-4.699-5.695-12.564-14.426-12.564h-5.452c-2.93,0-5.569,0.76-7.742,2.106
			l-7.326-2.092l-4.455,8.9c-0.858,1.714-1.873,4.769-1.967,9.721L50.988,153.78H33.435v35.39c-0.671,0.708-1.161,1.283-1.423,1.602
			l-2.735,3.323v63.836h-5.724v21.852l-7.18,7.589v50.859l7.18,7.589v22.326h5.724l0,334.752h-0.756v27.5h0.756l0.003,108.568
			l2.436,3.213c0.014,0.018,0.647,0.838,1.72,1.969v35.504h17.824l35.416,13.604c0.344,1.574,0.918,3.047,1.72,4.41
			c0.152,0.309,0.329,0.711,0.529,1.152c2.129,4.697,5.693,12.561,14.424,12.561h5.451
			C111.729,911.378,114.368,910.621,116.541,909.273z"/>
		<polygon fill="#FFFFFF" points="12.159,95.509 203.176,95.51 108.357,0 		"/>
	</g>
	<g>
		<rect x="148.288" y="841.527" fill="#2F2D2E" width="21.152" height="1"/>
		<rect x="148.288" y="844.611" fill="#2F2D2E" width="21.152" height="1"/>
		<rect x="148.288" y="847.697" fill="#2F2D2E" width="21.152" height="1"/>
		<rect x="148.288" y="850.781" fill="#2F2D2E" width="21.152" height="1"/>
		<rect x="148.288" y="853.867" fill="#2F2D2E" width="21.152" height="1"/>
		<rect x="148.288" y="856.951" fill="#2F2D2E" width="21.152" height="1"/>
		<rect x="148.288" y="860.037" fill="#2F2D2E" width="21.152" height="1"/>
		<rect x="148.288" y="863.121" fill="#2F2D2E" width="21.152" height="1"/>
		<rect x="45.497" y="841.527" fill="#2F2D2E" width="21.151" height="1"/>
		<rect x="45.497" y="844.611" fill="#2F2D2E" width="21.151" height="1"/>
		<rect x="45.497" y="847.697" fill="#2F2D2E" width="21.151" height="1"/>
		<rect x="45.497" y="850.781" fill="#2F2D2E" width="21.151" height="1"/>
		<rect x="45.497" y="853.867" fill="#2F2D2E" width="21.151" height="1"/>
		<rect x="45.497" y="856.951" fill="#2F2D2E" width="21.151" height="1"/>
		<rect x="45.497" y="860.037" fill="#2F2D2E" width="21.151" height="1"/>
		<rect x="45.497" y="863.121" fill="#2F2D2E" width="21.151" height="1"/>
		<rect x="160.514" y="837.41" fill="#2F2D2E" width="3" height="30.242"/>
		<rect x="153.686" y="837.41" fill="#2F2D2E" width="3" height="30.242"/>
		<rect x="57.867" y="837.41" fill="#2F2D2E" width="3" height="30.242"/>
		<rect x="51.04" y="837.41" fill="#2F2D2E" width="3" height="30.242"/>
		<rect x="160.514" y="165.78" fill="#2F2D2E" width="3" height="30.243"/>
		<rect x="153.686" y="165.78" fill="#2F2D2E" width="3" height="30.243"/>
		<rect x="57.868" y="165.78" fill="#2F2D2E" width="3" height="30.243"/>
		<rect x="51.041" y="165.78" fill="#2F2D2E" width="3" height="30.243"/>
		<path fill="#2F2D2E" d="M144.725,197.002V164.28h26.215v32.722H144.725z M147.725,167.28v26.722h20.215V167.28H147.725z"/>
		<path fill="#2F2D2E" d="M43.934,197.002V164.28h26.215v32.722H43.934z M46.934,167.28v26.722h20.215V167.28H46.934z"/>
		<path fill="#2F2D2E" d="M144.725,869.152v-36.377h26.215v36.377H144.725z M147.725,835.775v30.377h20.215v-30.377H147.725z"/>
		<path fill="#2F2D2E" d="M43.934,869.152v-36.377h26.215v36.377H43.934z M46.934,835.775v30.377h20.215v-30.377H46.934z"/>
		<path fill="#1E1F21" d="M168.034,193.919c-2.639,0-6.367,0-6.367,0l-13.379-13.379v-14.408h4.973v-3.869l-28.842-11.079h-9.245
			h-14.716h-9.245L62.37,162.263v3.869h4.973v14.408l-13.379,13.379c0,0-3.729,0-6.366,0s-6.321,4.479-6.321,4.479l59.182,0h14.716
			h59.181C174.354,198.398,170.67,193.919,168.034,193.919z"/>
		<g>
			<rect x="41.276" y="198.398" fill="#2F2D2E" width="133.078" height="634.664"/>
			<path fill="#DBC600" d="M174.354,833.062H41.275l0-634.664l133.078,0V833.062 M176.354,835.062v-2V198.398v-2h-2l-133.078,0h-2v2
				l0,634.664v2h2h133.079H176.354L176.354,835.062z"/>
		</g>
		<polygon fill="#1E1F21" points="41.275,834.929 41.275,718.398 137.124,718.398 143.833,743.398 174.354,743.398 174.354,834.929 
					"/>
		<rect x="41.276" y="198.398" fill="#DBC600" width="133.078" height="12"/>
		<rect x="146.225" y="356.146" fill="#DBC600" width="28.129" height="12"/>
		<rect x="146.225" y="739.898" fill="#DBC600" width="28.129" height="3.5"/>
		<rect x="40.52" y="714.898" fill="#DBC600" width="28.129" height="3.5"/>
		<g>
			<polygon fill="#2F2D2E" points="146.981,202.148 146.981,193.398 146.981,190.958 114.288,179.847 100.458,180.13 
				68.649,190.958 68.649,193.398 68.649,202.148 68.649,269.93 146.981,269.931 			"/>
			<path fill="#DBC600" d="M142.981,265.931l-70.332,0v-63.782v-8.327l28.511-9.705l12.507-0.256l29.314,9.963v8.325V265.931
				 M146.981,269.931v-67.782v-8.75v-2.44l-32.693-11.111l-13.83,0.283l-31.809,10.828v2.44v8.75v67.782L146.981,269.931
				L146.981,269.931z"/>
		</g>
		<rect x="66.649" y="269.93" fill="#DBC600" width="82.332" height="86.216"/>
		<rect x="148.981" y="269.931" fill="#FEE542" width="31.098" height="86.215"/>
		<rect x="35.552" y="269.93" fill="#C5AC07" width="31.097" height="86.216"/>
		<polygon fill="#C5AC07" points="148.981,263.458 114.288,252.347 114.288,250.771 100.458,250.771 100.458,252.63 66.649,263.458 
			66.649,269.93 100.458,269.931 106.262,269.931 109.369,269.931 114.288,269.931 148.981,269.931 		"/>
		<polygon fill="#C5AC07" points="115.173,833.072 146.981,822.244 146.981,356.146 68.649,356.146 68.648,822.244 101.342,833.355 
			101.342,834.929 115.173,834.929 		"/>
		<rect x="64.506" y="423.208" fill="#C5AC07" width="86.617" height="46.727"/>
		<polygon fill="#C5AC07" points="37.124,282.898 28.374,292.148 28.374,312.563 28.374,313.038 28.374,333.454 37.124,342.705 		
			"/>
		<g>
			<rect x="72.623" y="685.398" fill="#DBC600" width="70" height="113.5"/>
			<path fill="#2F2D2E" d="M72.123,799.398v-114.5h71v114.5H72.123z M73.123,685.898v112.5h69v-112.5H73.123z"/>
		</g>
		<circle fill="#2F2D2E" cx="107.624" cy="720.898" r="22.5"/>
		<circle fill="#2F2D2E" cx="107.624" cy="769.398" r="22.5"/>
		<circle fill="#DBC600" cx="107.624" cy="769.398" r="10.5"/>
		<circle fill="#DBC600" cx="107.624" cy="720.898" r="10.5"/>
		<path fill="#2F2D2E" d="M112.284,151.184c0,0,4.221-2.638,4.572-4.221s0.879-3.869,0-5.276s-3.166-7.738-4.572-7.738
			c-1.407,0-3.342,0-5.453,0c-2.109,0-1.934,1.231-1.934,2.11c0,0.88,0.176,2.11,1.934,2.11c1.76,0,3.166-0.879,3.166,1.056
			s-1.582,3.342-2.989,3.342s-3.869,0-3.869,0l-3.869-5.98l-1.231-0.352c0,0-0.703,1.407-0.703,5.101s0.879,4.748,0.879,4.748
			l3.342,5.101H112.284z"/>
		<path fill="#1E1F21" d="M47.597,839.408c2.638,0,6.366,0,6.366,0l13.379,13.381v14.406h-4.973v3.869l28.843,11.08h9.246h14.716
			h9.245l28.842-11.08v-3.869h-4.973v-14.406l13.379-13.381c0,0,3.729,0,6.367,0c2.637,0,6.32-4.479,6.32-4.479h-59.181h-14.716
			H41.275C41.275,834.929,44.959,839.408,47.597,839.408z"/>
		<path fill="#2F2D2E" d="M103.347,882.144c0,0-4.222,2.639-4.573,4.221c-0.352,1.584-0.879,3.869,0,5.275
			c0.88,1.408,3.166,7.738,4.573,7.738s3.342,0,5.452,0s1.934-1.23,1.934-2.109s-0.175-2.111-1.934-2.111s-3.166,0.881-3.166-1.055
			c0-1.934,1.582-3.342,2.99-3.342c1.406,0,3.869,0,3.869,0l3.869,5.98l1.23,0.352c0,0,0.703-1.406,0.703-5.1
			s-0.879-4.75-0.879-4.75l-3.342-5.1H103.347z"/>
		<rect x="148.288" y="169.196" fill="#2F2D2E" width="21.152" height="1"/>
		<rect x="148.288" y="172.281" fill="#2F2D2E" width="21.152" height="1"/>
		<rect x="148.288" y="175.366" fill="#2F2D2E" width="21.152" height="1"/>
		<rect x="148.288" y="178.451" fill="#2F2D2E" width="21.152" height="1"/>
		<rect x="148.288" y="181.536" fill="#2F2D2E" width="21.152" height="1"/>
		<rect x="148.288" y="184.621" fill="#2F2D2E" width="21.152" height="1"/>
		<rect x="148.288" y="187.706" fill="#2F2D2E" width="21.152" height="1"/>
		<rect x="148.288" y="190.791" fill="#2F2D2E" width="21.152" height="1"/>
		<rect x="45.498" y="169.196" fill="#2F2D2E" width="21.151" height="1"/>
		<rect x="45.498" y="172.281" fill="#2F2D2E" width="21.151" height="1"/>
		<rect x="45.498" y="175.366" fill="#2F2D2E" width="21.151" height="1"/>
		<rect x="45.498" y="178.451" fill="#2F2D2E" width="21.151" height="1"/>
		<rect x="45.498" y="181.536" fill="#2F2D2E" width="21.151" height="1"/>
		<rect x="45.498" y="184.621" fill="#2F2D2E" width="21.151" height="1"/>
		<rect x="45.498" y="187.706" fill="#2F2D2E" width="21.151" height="1"/>
		<rect x="45.498" y="190.791" fill="#2F2D2E" width="21.151" height="1"/>
		<polygon fill="#DBC600" points="41.756,83.509 174.833,83.51 108.775,16.971 		"/>
	</g>
</g>
<g id="green" display="none">
	<g display="inline">
		<path fill="#FFFFFF" d="M117.647,909.273l7.326,2.094l4.456-8.902c0.857-1.713,1.873-4.768,1.967-9.721l34.081-13.092h17.069
			v-34.713c0.81-0.805,1.485-1.559,2.006-2.176l2.908-3.283V368.146h5.725V257.931h-5.725v-63.839l-2.738-3.324
			c-0.465-0.563-1.209-1.419-2.176-2.377v-34.61H165.75l-35.688-13.709c-0.344-1.574-0.918-3.047-1.719-4.407
			c-0.151-0.31-0.328-0.711-0.527-1.151c-2.13-4.699-5.695-12.564-14.426-12.564h-5.452c-2.93,0-5.569,0.759-7.742,2.106
			l-7.326-2.092l-4.455,8.9c-0.858,1.713-1.873,4.769-1.967,9.721l-34.354,13.196H34.542v35.39
			c-0.671,0.708-1.161,1.283-1.423,1.602l-2.735,3.323v63.836H24.66v21.852l-7.18,7.589v50.859l7.18,7.589v22.326h5.724v334.752
			h-0.756v27.5h0.756l0.003,108.568l2.436,3.213c0.014,0.018,0.647,0.838,1.72,1.969v35.504h17.824l35.416,13.604
			c0.344,1.574,0.918,3.047,1.72,4.41c0.152,0.309,0.329,0.711,0.529,1.152c2.129,4.697,5.693,12.561,14.424,12.561h5.451
			C112.835,911.378,115.474,910.621,117.647,909.273z"/>
		<polygon fill="#FFFFFF" points="13.265,95.51 204.283,95.51 109.463,0 		"/>
	</g>
	<rect x="149.396" y="841.527" display="inline" fill="#2F2D2E" width="21.151" height="1"/>
	<rect x="149.396" y="844.611" display="inline" fill="#2F2D2E" width="21.151" height="1"/>
	<rect x="149.396" y="847.697" display="inline" fill="#2F2D2E" width="21.151" height="1"/>
	<rect x="149.396" y="850.781" display="inline" fill="#2F2D2E" width="21.151" height="1"/>
	<rect x="149.396" y="853.867" display="inline" fill="#2F2D2E" width="21.151" height="1"/>
	<rect x="149.396" y="856.951" display="inline" fill="#2F2D2E" width="21.151" height="1"/>
	<rect x="149.396" y="860.037" display="inline" fill="#2F2D2E" width="21.151" height="1"/>
	<rect x="149.396" y="863.121" display="inline" fill="#2F2D2E" width="21.151" height="1"/>
	<rect x="46.605" y="841.527" display="inline" fill="#2F2D2E" width="21.151" height="1"/>
	<rect x="46.605" y="844.611" display="inline" fill="#2F2D2E" width="21.151" height="1"/>
	<rect x="46.605" y="847.697" display="inline" fill="#2F2D2E" width="21.151" height="1"/>
	<rect x="46.605" y="850.781" display="inline" fill="#2F2D2E" width="21.151" height="1"/>
	<rect x="46.605" y="853.867" display="inline" fill="#2F2D2E" width="21.151" height="1"/>
	<rect x="46.605" y="856.951" display="inline" fill="#2F2D2E" width="21.151" height="1"/>
	<rect x="46.605" y="860.037" display="inline" fill="#2F2D2E" width="21.151" height="1"/>
	<rect x="46.605" y="863.121" display="inline" fill="#2F2D2E" width="21.151" height="1"/>
	<rect x="161.622" y="837.41" display="inline" fill="#2F2D2E" width="3" height="30.242"/>
	<rect x="154.793" y="837.41" display="inline" fill="#2F2D2E" width="3" height="30.242"/>
	<rect x="58.975" y="837.41" display="inline" fill="#2F2D2E" width="3" height="30.242"/>
	<rect x="52.148" y="837.41" display="inline" fill="#2F2D2E" width="3" height="30.242"/>
	<rect x="161.622" y="165.781" display="inline" fill="#2F2D2E" width="3" height="30.243"/>
	<rect x="154.793" y="165.781" display="inline" fill="#2F2D2E" width="3" height="30.243"/>
	<rect x="58.975" y="165.781" display="inline" fill="#2F2D2E" width="3" height="30.243"/>
	<rect x="52.148" y="165.781" display="inline" fill="#2F2D2E" width="3" height="30.243"/>
	<path display="inline" fill="#2F2D2E" d="M145.833,197.002v-32.722h26.215v32.722H145.833z M148.833,167.281v26.722h20.215v-26.722
		H148.833z"/>
	<path display="inline" fill="#2F2D2E" d="M45.042,197.002v-32.722h26.215v32.722H45.042z M48.042,167.281v26.722h20.215v-26.722
		H48.042z"/>
	<path display="inline" fill="#2F2D2E" d="M145.833,869.152v-36.377h26.215v36.377H145.833z M148.833,835.775v30.377h20.215v-30.377
		H148.833z"/>
	<path display="inline" fill="#2F2D2E" d="M45.042,869.152v-36.377h26.215v36.377H45.042z M48.042,835.775v30.377h20.215v-30.377
		H48.042z"/>
	<path display="inline" fill="#1E1F21" d="M169.141,193.919c-2.639,0-6.366,0-6.366,0l-13.379-13.379v-14.408h4.972v-3.869
		l-28.842-11.08h-9.245h-14.716H92.32l-28.843,11.08v3.869h4.973v14.408l-13.379,13.379c0,0-3.729,0-6.366,0
		s-6.321,4.479-6.321,4.479h59.182h14.716h59.181C175.461,198.398,171.779,193.919,169.141,193.919z"/>
	<g display="inline">
		<rect x="42.383" y="198.398" fill="#2F2D2E" width="133.078" height="634.664"/>
		<path fill="#009444" d="M175.461,833.062H42.383V198.398h133.078V833.062 M177.461,835.062v-2V198.398v-2h-2H42.383h-2v2v634.664
			v2h2h133.078H177.461L177.461,835.062z"/>
	</g>
	<polygon display="inline" fill="#1E1F21" points="42.383,834.929 42.383,718.398 138.231,718.398 144.94,743.398 175.461,743.398 
		175.461,834.929 	"/>
	<rect x="42.383" y="198.398" display="inline" fill="#009444" width="133.078" height="12"/>
	<rect x="147.333" y="356.146" display="inline" fill="#009444" width="28.129" height="12"/>
	<rect x="147.333" y="739.898" display="inline" fill="#009444" width="28.129" height="3.5"/>
	<rect x="41.627" y="714.898" display="inline" fill="#009444" width="28.129" height="3.5"/>
	<g display="inline">
		<polygon fill="#2F2D2E" points="148.088,202.148 148.088,193.398 148.088,190.958 115.395,179.847 101.565,180.13 69.756,190.958 
			69.756,193.398 69.756,202.148 69.756,269.931 148.088,269.931 		"/>
		<path fill="#009444" d="M144.088,265.931H73.756v-63.782v-8.327l28.511-9.705l12.507-0.256l29.314,9.962v8.325V265.931
			 M148.088,269.931v-67.782v-8.75v-2.44l-32.693-11.111l-13.83,0.283l-31.809,10.828v2.44v8.75v67.782H148.088L148.088,269.931z"/>
	</g>
	<rect x="67.756" y="269.931" display="inline" fill="#009444" width="82.332" height="86.216"/>
	<rect x="150.088" y="269.931" display="inline" fill="#8DC63F" width="31.098" height="86.216"/>
	<rect x="36.66" y="269.931" display="inline" fill="#006838" width="31.097" height="86.216"/>
	<polygon display="inline" fill="#006838" points="150.088,263.458 115.395,252.347 115.395,250.771 101.565,250.771 
		101.565,252.63 67.756,263.458 67.756,269.931 101.565,269.931 107.37,269.931 110.476,269.931 115.395,269.931 150.088,269.931 	
		"/>
	<polygon display="inline" fill="#006838" points="116.281,833.072 148.088,822.244 148.088,356.146 69.756,356.146 69.756,822.244 
		102.45,833.355 102.45,834.929 116.281,834.929 	"/>
	<rect x="65.614" y="423.208" display="inline" fill="#006838" width="86.617" height="46.727"/>
	<polygon display="inline" fill="#006838" points="38.231,282.898 29.481,292.148 29.481,312.564 29.481,313.039 29.481,333.454 
		38.231,342.704 	"/>
	<g display="inline">
		<rect x="73.731" y="685.398" fill="#009444" width="70" height="113.5"/>
		<path fill="#2F2D2E" d="M73.231,799.398v-114.5h71v114.5H73.231z M74.231,685.898v112.5h69v-112.5H74.231z"/>
	</g>
	<circle display="inline" fill="#2F2D2E" cx="108.731" cy="720.898" r="22.5"/>
	<circle display="inline" fill="#2F2D2E" cx="108.731" cy="769.398" r="22.5"/>
	<circle display="inline" fill="#009444" cx="108.731" cy="769.398" r="10.5"/>
	<circle display="inline" fill="#009444" cx="108.731" cy="720.898" r="10.5"/>
	<path display="inline" fill="#2F2D2E" d="M113.391,151.184c0,0,4.221-2.638,4.572-4.221s0.879-3.869,0-5.276
		s-3.166-7.738-4.572-7.738c-1.407,0-3.342,0-5.453,0c-2.109,0-1.934,1.231-1.934,2.11s0.176,2.11,1.934,2.11
		c1.76,0,3.166-0.879,3.166,1.055s-1.582,3.342-2.989,3.342s-3.869,0-3.869,0l-3.869-5.98l-1.231-0.352c0,0-0.703,1.407-0.703,5.1
		s0.879,4.749,0.879,4.749l3.342,5.1H113.391z"/>
	<path display="inline" fill="#1E1F21" d="M48.705,839.408c2.638,0,6.366,0,6.366,0l13.379,13.381v14.406h-4.973v3.869l28.843,11.08
		h9.245h14.716h9.245l28.842-11.08v-3.869h-4.972v-14.406l13.379-13.381c0,0,3.728,0,6.366,0c2.638,0,6.32-4.479,6.32-4.479h-59.181
		h-14.716H42.383C42.383,834.929,46.067,839.408,48.705,839.408z"/>
	<path display="inline" fill="#2F2D2E" d="M104.455,882.144c0,0-4.222,2.639-4.573,4.221c-0.352,1.584-0.879,3.869,0,5.275
		c0.88,1.408,3.166,7.738,4.573,7.738s3.342,0,5.452,0s1.934-1.23,1.934-2.109s-0.175-2.111-1.934-2.111s-3.166,0.881-3.166-1.055
		c0-1.934,1.582-3.342,2.99-3.342c1.406,0,3.869,0,3.869,0l3.869,5.98l1.23,0.352c0,0,0.703-1.406,0.703-5.1s-0.879-4.75-0.879-4.75
		l-3.342-5.1H104.455z"/>
	<rect x="149.396" y="169.197" display="inline" fill="#2F2D2E" width="21.151" height="1"/>
	<rect x="149.396" y="172.282" display="inline" fill="#2F2D2E" width="21.151" height="1"/>
	<rect x="149.396" y="175.367" display="inline" fill="#2F2D2E" width="21.151" height="1"/>
	<rect x="149.396" y="178.452" display="inline" fill="#2F2D2E" width="21.151" height="1"/>
	<rect x="149.396" y="181.537" display="inline" fill="#2F2D2E" width="21.151" height="1"/>
	<rect x="149.396" y="184.622" display="inline" fill="#2F2D2E" width="21.151" height="1"/>
	<rect x="149.396" y="187.707" display="inline" fill="#2F2D2E" width="21.151" height="1"/>
	<rect x="149.396" y="190.792" display="inline" fill="#2F2D2E" width="21.151" height="1"/>
	<rect x="46.605" y="169.197" display="inline" fill="#2F2D2E" width="21.151" height="1"/>
	<rect x="46.605" y="172.282" display="inline" fill="#2F2D2E" width="21.151" height="1"/>
	<rect x="46.605" y="175.367" display="inline" fill="#2F2D2E" width="21.151" height="1"/>
	<rect x="46.605" y="178.452" display="inline" fill="#2F2D2E" width="21.151" height="1"/>
	<rect x="46.605" y="181.537" display="inline" fill="#2F2D2E" width="21.151" height="1"/>
	<rect x="46.605" y="184.622" display="inline" fill="#2F2D2E" width="21.151" height="1"/>
	<rect x="46.605" y="187.707" display="inline" fill="#2F2D2E" width="21.151" height="1"/>
	<rect x="46.605" y="190.792" display="inline" fill="#2F2D2E" width="21.151" height="1"/>
	<polygon display="inline" fill="#009444" points="42.864,83.51 175.941,83.51 109.882,16.971 	"/>
</g>
</svg>
