<?xml version="1.0" encoding="utf-8"?>
<!-- Generator: Adobe Illustrator 16.0.0, SVG Export Plug-In . SVG Version: 6.00 Build 0)  -->
<!DOCTYPE svg PUBLIC "-//W3C//DTD SVG 1.1//EN" "http://www.w3.org/Graphics/SVG/1.1/DTD/svg11.dtd">
<svg version="1.1" xmlns="http://www.w3.org/2000/svg" xmlns:xlink="http://www.w3.org/1999/xlink" x="0px" y="0px" width="216px"
	 height="936px" viewBox="0 0 216 936" enable-background="new 0 0 216 936" xml:space="preserve">
<g id="Background" display="none">
	<rect x="-439.82" y="51.285" display="inline" width="1096.185" height="833.431"/>
</g>
<g id="Message_Loco">
</g>
<g id="Warning_Loco">
</g>
<g id="Critical_Loco">
	<g>
		<path fill="#FFFFFF" d="M116.874,909.273l7.328,2.093l4.454-8.902c0.857-1.714,1.871-4.769,1.966-9.72l34.082-13.092h17.068
			v-34.717c0.736-0.73,1.363-1.421,1.861-2.002l3.053-3.237v-471.55h5.725V257.93h-5.725v-63.839l-2.738-3.324
			c-0.465-0.563-1.209-1.419-2.176-2.377v-34.609h-16.797l-35.688-13.709c-0.344-1.573-0.918-3.045-1.719-4.406
			c-0.152-0.31-0.329-0.713-0.529-1.154c-2.129-4.698-5.693-12.562-14.424-12.562h-5.453c-2.93,0-5.568,0.759-7.741,2.106
			l-7.329-2.094l-4.455,8.905c-0.855,1.713-1.869,4.767-1.964,9.717l-34.354,13.197H33.766v35.39
			c-0.672,0.708-1.162,1.284-1.424,1.603l-2.734,3.322v63.835h-5.724v21.853l-7.179,7.589v50.858l7.179,7.589v22.327h5.724v334.752
			h-0.756v27.5h0.756v102.671l0.004,6.165l2.73,3.319c0.262,0.318,0.752,0.896,1.424,1.604v35.494h17.825l35.415,13.604
			c0.344,1.572,0.918,3.046,1.719,4.406c0.152,0.31,0.33,0.713,0.529,1.154c2.13,4.698,5.693,12.562,14.425,12.562h5.452
			C112.061,911.379,114.7,910.62,116.874,909.273z"/>
		<polygon fill="#FFFFFF" points="12.491,95.509 203.509,95.51 108.688,0 		"/>
	</g>
	<g>
		<rect x="148.621" y="841.527" fill="#2F2D2E" width="21.151" height="1"/>
		<rect x="148.621" y="844.612" fill="#2F2D2E" width="21.151" height="1"/>
		<rect x="148.621" y="847.697" fill="#2F2D2E" width="21.151" height="1"/>
		<rect x="148.621" y="850.782" fill="#2F2D2E" width="21.151" height="1"/>
		<rect x="148.621" y="853.867" fill="#2F2D2E" width="21.151" height="1"/>
		<rect x="148.621" y="856.952" fill="#2F2D2E" width="21.151" height="1"/>
		<rect x="148.621" y="860.037" fill="#2F2D2E" width="21.151" height="1"/>
		<rect x="148.621" y="863.122" fill="#2F2D2E" width="21.151" height="1"/>
		<rect x="45.83" y="841.527" fill="#2F2D2E" width="21.151" height="1"/>
		<rect x="45.83" y="844.612" fill="#2F2D2E" width="21.151" height="1"/>
		<rect x="45.83" y="847.697" fill="#2F2D2E" width="21.151" height="1"/>
		<rect x="45.83" y="850.782" fill="#2F2D2E" width="21.151" height="1"/>
		<rect x="45.83" y="853.867" fill="#2F2D2E" width="21.151" height="1"/>
		<rect x="45.83" y="856.952" fill="#2F2D2E" width="21.151" height="1"/>
		<rect x="45.83" y="860.037" fill="#2F2D2E" width="21.151" height="1"/>
		<rect x="45.83" y="863.122" fill="#2F2D2E" width="21.151" height="1"/>
		<rect x="160.846" y="837.41" fill="#2F2D2E" width="3" height="30.242"/>
		<rect x="154.018" y="837.41" fill="#2F2D2E" width="3" height="30.242"/>
		<rect x="58.2" y="837.41" fill="#2F2D2E" width="3" height="30.242"/>
		<rect x="51.373" y="837.41" fill="#2F2D2E" width="3" height="30.242"/>
		<rect x="160.846" y="165.781" fill="#2F2D2E" width="3" height="30.242"/>
		<rect x="154.018" y="165.781" fill="#2F2D2E" width="3" height="30.242"/>
		<rect x="58.2" y="165.781" fill="#2F2D2E" width="3" height="30.242"/>
		<rect x="51.373" y="165.781" fill="#2F2D2E" width="3" height="30.242"/>
		<path fill="#2F2D2E" d="M145.057,197.002v-32.722h26.215v32.722H145.057z M148.057,167.281v26.722h20.215v-26.722H148.057z"/>
		<path fill="#2F2D2E" d="M44.266,197.002v-32.722h26.215v32.722H44.266z M47.266,167.281v26.722h20.215v-26.722H47.266z"/>
		<path fill="#2F2D2E" d="M145.057,869.152v-36.376h26.215v36.376H145.057z M148.057,835.776v30.376h20.215v-30.376H148.057z"/>
		<path fill="#2F2D2E" d="M44.266,869.152v-36.376h26.215v36.376H44.266z M47.266,835.776v30.376h20.215v-30.376H47.266z"/>
		<path fill="#1E1F21" d="M168.366,193.919c-2.639,0-6.366,0-6.366,0l-13.379-13.38v-14.407h4.972v-3.869l-28.842-11.08h-9.245
			H100.79h-9.245l-28.843,11.08v3.869h4.973v14.407l-13.379,13.38c0,0-3.729,0-6.366,0s-6.321,4.479-6.321,4.479h59.182h14.716
			h59.181C174.686,198.398,171.003,193.919,168.366,193.919z"/>
		<g>
			<rect x="41.608" y="198.398" fill="#2F2D2E" width="133.078" height="634.665"/>
			<path fill="#BF2026" d="M174.686,833.063H41.608V198.398h133.078V833.063 M176.686,835.063v-2V198.398v-2h-2H41.608h-2v2v634.665
				v2h2h133.078H176.686L176.686,835.063z"/>
		</g>
		<polygon fill="#1E1F21" points="41.608,834.93 41.608,718.398 137.456,718.398 144.165,743.398 174.686,743.398 174.686,834.93 		
			"/>
		<rect x="41.608" y="198.398" fill="#BF2026" width="133.078" height="12"/>
		<rect x="146.557" y="356.146" fill="#BF2026" width="28.129" height="12"/>
		<rect x="146.557" y="739.898" fill="#BF2026" width="28.129" height="3.5"/>
		<rect x="40.852" y="714.898" fill="#BF2026" width="28.129" height="3.5"/>
		<g>
			<polygon fill="#2F2D2E" points="147.313,202.148 147.313,193.398 147.313,190.958 114.62,179.847 100.79,180.13 68.981,190.958 
				68.981,193.398 68.981,202.148 68.981,269.93 147.313,269.93 			"/>
			<path fill="#BF2026" d="M143.313,265.93H72.981v-63.782v-8.326l28.51-9.705l12.508-0.256l29.314,9.962v8.325V265.93
				 M147.313,269.93v-67.782v-8.75v-2.44l-32.693-11.11l-13.83,0.283l-31.809,10.827v2.44v8.75v67.782H147.313L147.313,269.93z"/>
		</g>
		<rect x="66.981" y="269.93" fill="#BF2026" width="82.332" height="86.216"/>
		<rect x="149.313" y="269.93" fill="#DC4E34" width="31.098" height="86.216"/>
		<rect x="35.884" y="269.93" fill="#A01D21" width="31.097" height="86.216"/>
		<polygon fill="#A01D21" points="149.313,263.458 114.62,252.347 114.62,250.771 100.79,250.771 100.79,252.63 66.981,263.458 
			66.981,269.93 100.79,269.93 106.594,269.93 109.701,269.93 114.62,269.93 149.313,269.93 		"/>
		<polygon fill="#A01D21" points="115.505,833.072 147.313,822.244 147.313,356.146 68.981,356.146 68.981,822.244 101.674,833.355 
			101.674,834.93 115.505,834.93 		"/>
		<rect x="64.838" y="423.208" fill="#A01D21" width="86.617" height="46.728"/>
		<polygon fill="#A01D21" points="37.456,282.898 28.706,292.148 28.706,312.564 28.706,313.039 28.706,333.454 37.456,342.704 		
			"/>
		<g>
			<rect x="72.956" y="685.398" fill="#BF2026" width="70" height="113.5"/>
			<path fill="#2F2D2E" d="M72.456,799.398v-114.5h71v114.5H72.456z M73.456,685.898v112.5h69v-112.5H73.456z"/>
		</g>
		<circle fill="#2F2D2E" cx="107.956" cy="720.898" r="22.5"/>
		<circle fill="#2F2D2E" cx="107.956" cy="769.398" r="22.5"/>
		<circle fill="#BF2026" cx="107.956" cy="769.398" r="10.5"/>
		<circle fill="#BF2026" cx="107.956" cy="720.898" r="10.5"/>
		<path fill="#2F2D2E" d="M112.616,151.183c0,0,4.221-2.638,4.572-4.221s0.879-3.868,0-5.275s-3.166-7.738-4.572-7.738
			c-1.407,0-3.342,0-5.453,0c-2.109,0-1.934,1.23-1.934,2.11c0,0.879,0.176,2.11,1.934,2.11c1.76,0,3.166-0.88,3.166,1.055
			s-1.582,3.342-2.989,3.342s-3.869,0-3.869,0l-3.869-5.979l-1.231-0.352c0,0-0.703,1.406-0.703,5.1s0.879,4.749,0.879,4.749
			l3.342,5.1H112.616z"/>
		<path fill="#1E1F21" d="M47.929,839.409c2.638,0,6.366,0,6.366,0l13.379,13.38v14.407h-4.973v3.869l28.843,11.079h9.245h14.716
			h9.245l28.842-11.079v-3.869h-4.972v-14.407L162,839.409c0,0,3.728,0,6.366,0c2.638,0,6.32-4.479,6.32-4.479h-59.181H100.79
			H41.608C41.608,834.929,45.292,839.409,47.929,839.409z"/>
		<path fill="#2F2D2E" d="M103.679,882.144c0,0-4.222,2.639-4.573,4.221c-0.352,1.584-0.879,3.869,0,5.276
			c0.88,1.407,3.166,7.738,4.573,7.738s3.342,0,5.452,0s1.934-1.231,1.934-2.11s-0.175-2.11-1.934-2.11s-3.166,0.88-3.166-1.056
			c0-1.934,1.582-3.342,2.99-3.342c1.406,0,3.869,0,3.869,0l3.869,5.98l1.23,0.352c0,0,0.703-1.406,0.703-5.1
			s-0.879-4.749-0.879-4.749l-3.342-5.101H103.679z"/>
		<rect x="148.621" y="169.197" fill="#2F2D2E" width="21.151" height="1"/>
		<rect x="148.621" y="172.282" fill="#2F2D2E" width="21.151" height="1"/>
		<rect x="148.621" y="175.367" fill="#2F2D2E" width="21.151" height="1"/>
		<rect x="148.621" y="178.452" fill="#2F2D2E" width="21.151" height="1"/>
		<rect x="148.621" y="181.537" fill="#2F2D2E" width="21.151" height="1"/>
		<rect x="148.621" y="184.622" fill="#2F2D2E" width="21.151" height="1"/>
		<rect x="148.621" y="187.707" fill="#2F2D2E" width="21.151" height="1"/>
		<rect x="148.621" y="190.792" fill="#2F2D2E" width="21.151" height="1"/>
		<rect x="45.83" y="169.197" fill="#2F2D2E" width="21.151" height="1"/>
		<rect x="45.83" y="172.282" fill="#2F2D2E" width="21.151" height="1"/>
		<rect x="45.83" y="175.367" fill="#2F2D2E" width="21.151" height="1"/>
		<rect x="45.83" y="178.452" fill="#2F2D2E" width="21.151" height="1"/>
		<rect x="45.83" y="181.537" fill="#2F2D2E" width="21.151" height="1"/>
		<rect x="45.83" y="184.622" fill="#2F2D2E" width="21.151" height="1"/>
		<rect x="45.83" y="187.707" fill="#2F2D2E" width="21.151" height="1"/>
		<rect x="45.83" y="190.792" fill="#2F2D2E" width="21.151" height="1"/>
		<polygon fill="#BF2026" points="41.608,83.509 174.686,83.51 108.626,16.971 		"/>
	</g>
</g>
</svg>
