<?xml version="1.0" encoding="UTF-8" standalone="no"?>
<svg width="482px" height="487px" viewBox="0 0 482 487" version="1.1" xmlns="http://www.w3.org/2000/svg" xmlns:xlink="http://www.w3.org/1999/xlink">
    <!-- Generator: Sketch 3.7.2 (28276) - http://www.bohemiancoding.com/sketch -->
    <title>mpi-watermark</title>
    <desc>Created with Sketch.</desc>
    <defs></defs>
    <g id="Symbols" stroke="none" stroke-width="1" fill="none" fill-rule="evenodd">
        <g id="mpi-watermark" stroke="#4C4C4C">
            <path d="M304.242167,6.64906768 L291.426975,2.85751599 L279.086419,0 L272.797481,28.590991 L272.433593,28.5039199 L269.451292,43.8205222 L268.64441,47.4933405 L268.731426,47.5170872 L268.64441,47.968274 L288.579154,53.1925414 L308.031351,59.8416091 C337.806897,72.6885577 362.448456,90.9022538 381.718709,112.480062 C382.351558,113.200377 383.047692,113.8732 383.67263,114.601431 C384.677278,115.765018 385.594909,116.984013 386.567914,118.163431 C388.822439,120.902214 391.045321,123.664743 393.149544,126.522259 C393.845678,127.46421 394.502259,128.421993 395.182572,129.37186 C397.48456,132.625153 399.715353,135.925941 401.819576,139.305883 C402.278391,140.04203 402.737207,140.770261 403.188112,141.514324 C405.61667,145.527511 407.926569,149.611938 410.062434,153.791352 C410.13363,153.933832 410.212736,154.068397 410.283931,154.202961 C414.808802,163.107963 418.629628,172.37708 421.738499,181.915325 C422.023281,182.778121 422.27642,183.656748 422.545381,184.527459 C423.747794,188.398166 424.831548,192.308451 425.788732,196.258314 C426.01814,197.216097 426.263369,198.173879 426.476956,199.131661 C428.684017,208.907374 430.163301,218.912638 430.79615,229.099959 C430.811972,229.305764 430.811972,229.511568 430.819882,229.717373 C431.120485,234.783329 431.215413,239.888863 431.104664,245.026059 C431.096754,245.239779 431.096754,245.453499 431.088843,245.66722 C430.954363,250.978558 430.606296,256.321559 430.013,261.696222 L426.690542,281.635509 L421.002812,301.115695 C412.261585,326.92041 398.599956,349.804284 381.362731,369.173652 C380.453011,370.186843 379.511648,371.184203 378.578195,372.189479 C376.323671,374.619555 373.997951,376.986306 371.624767,379.297649 C370.177125,380.714533 368.705751,382.123502 367.194824,383.508725 C364.750444,385.756743 362.250691,387.933521 359.703473,390.05489 C358.62763,390.957264 357.567608,391.867553 356.468033,392.762011 C354.332167,394.463855 352.101374,396.039051 349.902224,397.653825 L337.466741,406.075977 L325.537537,413.033752 C313.584601,419.469099 301.030458,424.88334 287.922573,428.920274 C287.914662,428.92819 287.906752,428.92819 287.898841,428.92819 C273.026889,433.511297 257.522088,436.447968 241.685041,437.682795 C239.683656,437.833191 237.690182,437.8886 235.688797,437.983587 C233.189043,438.10232 230.681379,438.197307 228.157894,438.236884 C225.697693,438.260631 223.253314,438.213138 220.801024,438.149813 L203.619173,436.946649 L182.735155,433.614199 L182.703513,433.740848 C94.0571859,415.305516 20.306543,341.508781 20.409381,239.366436 L21.3586545,219.419233 L24.6811118,199.47203 L5.22100443,195.19763 L1.4239103,217.044566 L0,239.366436 C1.02046905,351.601116 81.4397585,432.893884 178.518798,452.991482 L172.293146,481.582473 L185.582976,483.965056 L197.923532,485.389856 C319.2486,499.210418 440.921735,422.833211 473.204945,303.482446 L476.060677,291.609111 L478.908497,278.793825 C498.787867,157.551242 420.72594,40.9630062 304.242167,6.64906768 Z M107.264745,204.221364 C155.61441,69.7518861 359.32851,108.356056 349.337406,253.147421 L347.430949,265.495689 L376.890071,271.448188 C362.128867,337.487678 301.256702,390.165708 224.500026,388.978375 L208.837013,388.495526 L193.648636,386.112943 L189.376906,405.118195 L206.946376,407.975711 L224.500026,408.442729 C315.250576,409.107635 385.931901,345.189515 398.604703,266.184343 L400.12354,258.371688 C400.2422,256.376968 400.163093,254.493065 400.234289,252.530007 C402.378065,223.321603 396.642871,192.514256 381.130159,162.43514 L372.586697,148.662071 L372.570876,148.638325 C359.186119,128.604051 341.711576,112.361328 321.800563,100.060553 C320.526955,99.2531662 319.253346,98.4299483 317.963916,97.6542237 C316.824788,96.9893169 315.677749,96.3481569 314.5228,95.7149123 C280.103723,76.2109805 240.479464,69.1661349 202.437327,74.0342024 C200.483406,74.2637535 198.545306,74.6199536 196.599295,74.9207447 C194.827318,75.2057048 193.063251,75.4748337 191.299184,75.8152026 C167.377491,80.2083366 144.270591,89.4774536 123.639713,103.883767 C123.252093,104.152896 122.872384,104.414109 122.484764,104.683238 C120.040385,106.424661 117.603916,108.197745 115.230732,110.089563 C94.6947813,126.18189 77.418003,147.316427 65.5046201,173.350693 L58.8517948,189.506344 L54.5800639,206.121098 L103.475561,216.094699 L107.264745,204.221364 Z M131.788436,246.17619 C131.851721,247.292283 131.938737,248.400461 132.049486,249.516555 C132.199787,251.123413 132.381732,252.722355 132.611139,254.313382 C132.626961,254.400453 132.642782,254.479609 132.658603,254.56668 C134.913128,269.487504 141.115048,283.972973 151.715269,296.455806 C160.709636,307.197217 172.757499,316.387178 187.953786,322.965006 L196.971885,326.28954 L205.989983,328.648376 L210.261714,309.666871 L210.166787,309.643124 L216.431992,281.155035 L208.363167,278.31335 C164.459266,258.817334 179.48152,199.838521 225.924728,198.999472 L234.468189,199.949338 L241.026087,171.413756 C295.008109,182.384718 321.176416,248.060092 276.710862,291.611486 L271.489857,296.352904 L265.319579,300.160287 L276.710862,316.315938 L283.830413,311.091671 L291.424601,305.867403 C348.428477,247.593074 312.371904,162.334613 240.15592,151.458638 L235.417463,150.556264 C232.174112,150.35046 229.009867,150.295051 225.900996,150.334629 C222.942427,150.295051 219.952215,150.35046 216.906629,150.556264 L207.896441,151.981064 L206.488352,152.281856 C206.164017,152.34518 205.847592,152.41642 205.523257,152.479744 L198.870432,153.880798 C196.00679,154.759425 193.253897,155.748869 190.564289,156.81747 C176.317275,162.192133 164.364339,170.566792 155.053548,180.896593 C138.93963,198.421636 131.029017,221.028466 131.669776,243.461154 C131.693508,244.371443 131.740972,245.273816 131.788436,246.17619 Z" id="mpi-icon"></path>
        </g>
    </g>
</svg>