<?xml version="1.0" encoding="UTF-8" standalone="no"?>
<svg width="181px" height="40px" viewBox="0 0 181 40" version="1.1" xmlns="http://www.w3.org/2000/svg" xmlns:xlink="http://www.w3.org/1999/xlink">
    <!-- Generator: Sketch 3.7.2 (28276) - http://www.bohemiancoding.com/sketch -->
    <title>mpi-logo</title>
    <desc>Created with Sketch.</desc>
    <defs></defs>
    <g id="Symbols" stroke="none" stroke-width="1" fill="none" fill-rule="evenodd">
        <g id="footer-compact" transform="translate(-629.000000, -20.000000)">
            <g id="mpi-logo" transform="translate(629.000000, 20.000000)">
                <g id="mpi-icon" fill="#EB2227">
                    <path d="M25.2196721,0.541869983 L24.157377,0.232193127 L23.1344262,-6.45160118e-05 L22.6137705,2.33025383 L22.5829508,2.32251191 L22.3363934,3.57025158 L22.2688525,3.87089619 L22.2760656,3.87283168 L22.2688525,3.9096058 L23.9213115,4.33541148 L25.5337705,4.87734598 C28.0065574,5.92637633 30.0518033,7.41347041 31.6498361,9.17669301 C31.7003279,9.23217678 31.7547541,9.28443475 31.8039344,9.34056368 C31.8878689,9.43540222 31.9639344,9.53540203 32.0452459,9.63217605 C32.2314754,9.85475629 32.415082,10.079272 32.5888525,10.3115297 C32.6472131,10.3889489 32.7022951,10.4676584 32.7586885,10.5457228 C32.9495082,10.8102384 33.1331148,11.078625 33.3068852,11.3528181 C33.3455738,11.4134631 33.3842623,11.4741082 33.4222951,11.5353984 C33.6222951,11.8612043 33.8131148,12.1928166 33.9895082,12.5315256 C33.9960656,12.5444288 34.0032787,12.5566869 34.0098361,12.5695901 C34.384918,13.29475 34.7009836,14.0495874 34.9593443,14.825715 C34.9829508,14.8973278 35.0039344,14.9695857 35.0268852,15.0411985 C35.1265574,15.3553915 35.2157377,15.6741006 35.2944262,15.9953903 C35.3140984,16.0740998 35.3344262,16.151519 35.3521311,16.2302286 C35.535082,17.0270013 35.6577049,17.8424837 35.7101639,18.6728048 C35.7114754,18.689579 35.7114754,18.7063531 35.7121311,18.7231273 C35.7370492,19.1360298 35.744918,19.552158 35.7357377,19.970867 C35.735082,19.9882863 35.735082,20.0057056 35.7344262,20.0231249 C35.7232787,20.4560274 35.6944262,20.8915104 35.6452459,21.3295742 L35.3698361,22.9547325 L34.8983607,24.5424716 C34.1737705,26.6456935 33.0413115,28.5108514 31.612459,30.0895582 C31.5370492,30.1721387 31.4590164,30.2534289 31.3816393,30.3353643 C31.1947541,30.5334284 31.0019672,30.7263313 30.8052459,30.914718 C30.6852459,31.0302017 30.5632787,31.1450402 30.4380328,31.2579432 C30.2360656,31.4405235 30.0288525,31.6185877 29.8177049,31.7908455 C29.7285246,31.8650389 29.64,31.9392323 29.5481967,32.0121354 C29.3718033,32.1508448 29.1868852,32.2792317 29.0052459,32.4108444 L27.9737705,33.0972947 L26.9855738,33.6643905 C25.9940984,34.1889056 24.9534426,34.6301952 23.8668852,34.9592268 C23.8662295,34.959872 23.8655738,34.959872 23.864918,34.959872 C22.6321311,35.3334197 21.347541,35.5727741 20.0347541,35.6734191 C19.8681967,35.685032 19.7016393,35.6901932 19.5357377,35.6979352 C19.3285246,35.7076126 19.1213115,35.7153545 18.9127869,35.7179351 C18.7095082,35.7198706 18.5062295,35.7166448 18.3036066,35.7114835 L16.8786885,35.6134192 L15.147541,35.3411616 L15.144918,35.3521293 C7.79672131,33.8495514 1.68327869,27.8347236 1.69180328,19.5095775 L1.7704918,17.883774 L2.04590164,16.2579705 L0.432786885,15.909584 L0.118032787,17.6902259 L0,19.5095775 C0.0845901639,28.6573028 6.75081967,35.2830972 14.7980328,36.9211587 L14.2819672,39.2514771 L15.3836066,39.4456703 L16.4065574,39.5611539 C26.4636066,40.6882487 36.5495082,34.4630987 39.2255738,24.7353744 L39.4622951,23.7676342 L39.6983607,22.72312 C41.3462295,12.8405573 34.8754098,3.3386391 25.2196721,0.541869983" id="Fill-1"></path>
                    <path d="M8.89154098,16.645002 C12.8994098,5.68502193 29.7859672,8.83082267 28.9577705,20.6327367 L28.7997377,21.6391865 L31.2417049,22.1243469 C30.0180984,27.5062726 24.9721967,31.8004584 18.6095738,31.7036843 L17.3112131,31.6643296 L16.0521967,31.4701364 L15.6980984,33.0191658 L17.1544918,33.2520686 L18.6095738,33.2901331 C26.131541,33.3443265 31.9912131,28.1353037 33.0410492,21.6959606 L33.1676066,21.0585424 C33.1774426,20.895962 33.1708852,20.7424139 33.1767869,20.5824142 C33.3544918,18.2017734 32.879082,15.6908102 31.5931803,13.2385566 L30.8849836,12.115978 L30.8830164,12.1133974 C29.7728525,10.4792068 28.3223607,9.15469305 26.6705574,8.15211422 C26.5669508,8.08759821 26.464,8.02179188 26.359082,7.96050167 C26.2633443,7.90566306 26.1662951,7.85275993 26.0692459,7.7998568 C23.2180984,6.21082743 19.9348197,5.63728008 16.7820328,6.0334084 C16.6174426,6.0527632 16.4535082,6.08244056 16.2895738,6.10695665 C16.1459672,6.12953725 16.0030164,6.1514727 15.8600656,6.17856942 C13.8738361,6.53663329 11.9551475,7.29340611 10.2423607,8.47146848 C10.2148197,8.49017813 10.186623,8.50888777 10.159082,8.52824257 C9.95318033,8.67211328 9.74859016,8.81856463 9.54859016,8.97469338 C7.8482623,10.2863039 6.41678689,12.0082363 5.42990164,14.1288776 L4.87842623,15.4450042 L4.52432787,16.7998405 L8.57744262,17.6127422 L8.89154098,16.645002 Z" id="Fill-3"></path>
                    <path d="M10.9243934,20.0643507 C10.9296393,20.1553182 10.9368525,20.2462858 10.9460328,20.3366082 C10.9584918,20.4675757 10.9735738,20.5978981 10.9925902,20.7275753 C10.9939016,20.734672 10.9952131,20.7417688 10.9965246,20.7488655 C11.1834098,21.9643472 11.6975082,23.1449902 12.5761967,24.1624077 C13.3211148,25.03789 14.3198033,25.7869209 15.5801311,26.323049 L16.3276721,26.5940162 L17.0752131,26.7869191 L17.4293115,25.23918 L17.4214426,25.2372445 L17.9407869,22.9159584 L17.2719344,22.6837007 C13.6325902,21.0953165 14.8778361,16.2875833 18.7276721,16.2191963 L19.4358689,16.2966156 L19.9794754,13.9714585 C24.4542295,14.8650053 26.6234098,20.2178988 22.9375082,23.7675697 L22.5047213,24.1546658 L21.9932459,24.4643427 L22.9375082,25.7811145 L23.5276721,25.3553088 L24.1571803,24.9295031 C28.8824262,20.1798343 25.8935738,13.2314598 19.9073443,12.3443647 L19.5145574,12.2708164 C19.2450492,12.2540423 18.9814426,12.2495261 18.7224262,12.2527519 C18.4784918,12.2495261 18.2319344,12.2540423 17.9801311,12.2708164 L17.2332459,12.3869452 L17.120459,12.410171 C17.0902951,12.4159774 17.0607869,12.4230742 17.030623,12.4288807 L16.4850492,12.5417837 C16.2476721,12.6133964 16.0194754,12.6940415 15.7965246,12.7811381 C14.6148852,13.2192018 13.6240656,13.9024264 12.8522623,14.7443603 C11.5171803,16.1727448 10.8614426,18.0153221 10.9145574,19.8430607 C10.9165246,19.9172541 10.920459,19.9908024 10.9243934,20.0643507" id="Fill-5"></path>
                </g>
                <g id="mpi" transform="translate(41.290248, 11.612882)" fill="#FFFFFF">
                    <polygon id="Fill-1" points="17.3810007 0.645031086 13.8190717 9.31598308 13.7810072 9.31598308 14.0513293 0.645031086 5.69005418 0.645031086 2.51651156 15.1611338 7.58682493 15.1611338 9.91004652 4.78695905 9.71649848 15.1611338 15.2513271 15.1611338 19.702932 4.78695905 19.7416416 4.78695905 17.4190651 15.1611338 22.5287333 15.1617789 25.7422758 0.645031086"></polygon>
                    <path d="M31.2776851,4.78702356 L32.0512321,4.82573317 L32.748005,4.86444278 L33.4067135,5.01928121 C35.7209029,5.46766749 36.9963844,7.16895472 36.6189657,9.50959563 L36.3873533,10.671529 C35.3834841,13.5592657 33.3596168,14.8405537 30.4260738,15.3547463 L29.6518816,15.3941011 L28.8770443,15.4328107 L28.1034973,15.3941011 L27.4067244,15.3547463 C25.1389866,15.0037792 23.3428608,13.7321686 23.4964089,11.2521731 L23.4964089,10.671529 L23.6125378,10.0902397 C24.3099558,7.29024482 26.1828557,5.60508659 28.9938183,5.01928121 L29.7293008,4.86444278 L30.503493,4.82573317 L31.2776851,4.78702356 Z M29.4583336,12.722493 L29.7673653,12.6837834 L30.0389777,12.6070094 L30.2705902,12.4515258 L30.5415574,12.1805585 L30.7351055,11.8321721 L30.8899439,11.3683019 L31.1228467,10.7870127 L31.4318784,9.39346681 L31.4712332,8.85153231 L31.4712332,8.42572663 L31.4318784,8.03863056 L31.3163947,7.80637292 L31.1609111,7.65153449 L30.9292987,7.53540567 L30.3486546,7.53540567 L30.0776873,7.65153449 L29.8447845,7.80637292 L29.613172,8.03863056 L29.3809144,8.42572663 L29.2254308,8.85153231 L28.9938183,9.39346681 L28.8389799,10.0902397 C28.7389801,10.8199158 28.5067224,11.7424948 28.7996251,12.4515258 L28.9938183,12.6070094 L29.1873663,12.6837834 L29.4583336,12.722493 L29.4583336,12.722493 Z" id="Fill-2"></path>
                    <path d="M38.0128342,8.03863056 L36.6192883,8.03863056 L37.2773516,5.05799081 L38.6715427,5.05799081 L39.0199291,3.47089692 L44.438629,1.7289646 L43.741856,5.05799081 L45.9870132,5.05799081 L45.3289499,8.03863056 L43.0837927,8.03863056 L42.3870198,11.1353991 C41.9515367,12.460558 43.3031472,12.2250746 44.0902425,12.0650749 L44.2837905,12.0257201 L43.6257272,15.0063598 L43.1612119,15.1231338 C41.0554093,15.4689396 36.138644,16.2437769 36.9676748,12.6070094 L38.0128342,8.03863056" id="Fill-4"></path>
                    <path d="M46.8384311,5.0579263 L51.9093896,5.0579263 L49.7416516,15.1617789 L44.6319834,15.1617789 L46.8384311,5.0579263 Z M47.845526,0.645031086 L52.9158394,0.645031086 L52.2190664,3.74179966 L47.1481079,3.74179966 L47.845526,0.645031086 Z" id="Fill-6"></path>
                    <polygon id="Fill-9" points="51.9867443 5.0579263 57.2125412 5.0579263 57.1738316 11.3682374 57.2125412 11.3682374 59.9222137 5.0579263 65.1867203 5.0579263 59.7673753 15.1617789 52.8383556 15.1617789"></polygon>
                    <path d="M74.3998003,11.9490106 L74.2062523,12.3741711 L74.0120591,12.7225575 L73.7804466,13.1096536 C72.3307718,14.9296503 70.3862592,15.3025528 68.1675536,15.43223 L66.8894914,15.43223 C64.4153024,15.2922303 62.5249832,14.1773936 62.6320798,11.4451405 L62.6701442,10.7870772 L62.7869182,10.0515946 L62.9804662,9.43224093 L63.1740143,8.85159683 C64.2623994,6.21224678 66.7675561,4.92773298 69.5217447,4.82579769 L70.2191628,4.78708808 L70.9546453,4.82579769 C73.6346404,4.9128943 75.2959277,6.24385963 75.0578637,9.04514486 L75.0191541,9.66449857 L74.7094772,10.9812704 L67.4320711,10.9812704 L67.3933615,11.2903021 L67.3546519,11.7161078 C67.2662649,12.3922356 67.3249745,12.5425579 67.8191671,12.877396 L68.1281988,12.9167507 L68.4765853,12.9548152 C69.0552939,12.9825571 69.2223904,12.7290091 69.6772283,12.4128807 L69.7927119,12.180623 L69.9481955,11.9490106 L74.3998003,11.9490106 Z M70.6449685,8.85159683 L70.6449685,8.73611316 C71.2133545,6.77418124 68.403037,6.7586974 67.935296,8.73611316 L67.935296,8.85159683 L70.6449685,8.85159683 L70.6449685,8.85159683 Z" id="Fill-11"></path>
                    <path d="M77.0321181,0.645160118 L85.819199,0.645160118 L87.096616,0.76128894 C90.5437065,1.20773974 90.8488672,4.2464439 89.6127405,6.91611647 L89.3417732,7.38063176 L89.0320963,7.80643743 C87.8327437,9.42127321 85.5662962,10.230304 83.6121062,10.2451427 L82.8772688,10.2844974 L80.9030789,10.2844974 L79.8579195,15.1612628 L73.7805111,15.1612628 L77.0321181,0.645160118 Z M81.9095286,6.99353568 L82.450818,6.95482608 L82.9159784,6.87740686 C83.5643643,6.74127808 84.0979118,6.41031094 84.3088791,5.75482826 L84.4256531,5.40644179 L84.5030723,5.01934572 C84.4682337,4.26386322 84.0759763,4.05096038 83.3804937,3.93547672 L82.954688,3.89676712 L82.2966247,3.89676712 L81.6385614,6.99353568 L81.9095286,6.99353568 L81.9095286,6.99353568 Z" id="Fill-13"></path>
                    <path d="M95.7284713,4.78702356 L97.1994364,4.86444278 L97.8574997,5.01928121 C100.23685,5.57476407 101.360074,7.06508394 101.070397,9.50959563 L100.954913,10.0902397 L100.79943,10.671529 C99.9600765,13.4941045 97.6768548,14.8960375 94.8775051,15.3547463 L94.1026678,15.3941011 L93.3284756,15.4328107 L92.5542835,15.3941011 L91.8575106,15.3547463 C89.5071923,14.9495857 87.8652598,13.8141039 87.9091306,11.2521731 L87.9484854,10.671529 L88.0639691,10.0902397 C88.6788067,7.38508336 90.7252546,5.51347386 93.4446045,5.01928121 L94.1807322,4.86444278 L95.7284713,4.78702356 Z M93.9478294,12.722493 L94.2575062,12.6837834 L94.4897639,12.6070094 L94.7226667,12.4515258 L94.9542791,12.1805585 L95.1865368,11.8321721 L95.5349232,10.7870127 L95.7284713,10.0902397 L95.8452453,9.39346681 L95.9220193,8.85153231 L95.9220193,8.42572663 L95.8833097,8.03863056 L95.767826,7.80637292 L95.5736329,7.65153449 L95.3800848,7.53540567 L94.8000859,7.53540567 L94.5671831,7.65153449 L94.2962158,7.80637292 L94.0639582,8.03863056 L93.8704101,8.42572663 L93.6768621,8.85153231 L93.4839592,9.39346681 L93.3284756,10.0902397 C93.1684759,10.8212062 92.8942829,11.7450754 93.289766,12.4515258 L93.4446045,12.6070094 L93.6768621,12.6837834 L93.9478294,12.722493 L93.9478294,12.722493 Z" id="Fill-16"></path>
                    <polygon id="Fill-18" points="101.109042 5.0579263 105.754195 5.0579263 105.174196 11.5998499 107.805804 5.0579263 113.070311 5.0579263 112.876763 11.5998499 112.916117 11.5998499 115.315468 5.0579263 119.921911 5.0579263 115.315468 15.1617789 109.431608 15.1617789 109.625156 8.73598413 109.547737 8.73598413 107.032257 15.1617789 101.070333 15.1617789"></polygon>
                    <path d="M129.44441,11.9490106 L129.290217,12.3741711 L129.057314,12.7225575 C127.050221,16.4844862 116.466369,16.9702918 117.677335,10.7870772 L117.831528,10.0515946 L117.986366,9.43224093 L118.219269,8.85159683 C119.239912,6.25160155 121.86765,4.87353953 124.567,4.82579769 L125.264418,4.78708808 L125.961191,4.82579769 C128.667637,4.93547491 130.25086,6.23160158 130.103119,9.04514486 L130.025054,9.66449857 L129.90957,10.3225619 L129.754087,10.9812704 L122.516036,10.9812704 L122.399262,11.2903021 C121.764424,13.2019115 124.041194,13.4741691 124.837967,12.180623 L124.99345,11.9490106 L129.44441,11.9490106 Z M125.612804,8.85159683 L125.650869,8.73611316 C126.245706,6.78256833 123.409582,6.7361168 123.018615,8.73611316 L122.979906,8.85159683 L125.612804,8.85159683 L125.612804,8.85159683 Z" id="Fill-20"></path>
                    <path d="M131.070536,5.0579263 L136.025366,5.0579263 L135.909237,6.1805049 L136.257623,5.87082805 C137.203428,4.99018448 138.19891,4.77599132 139.393102,5.13534551 L139.54794,5.21276473 L138.696329,8.85146779 L138.464071,8.85146779 C137.350525,8.51921033 135.328593,8.26437209 135.096335,9.85791758 L133.896337,15.1617789 L128.825379,15.1617789 L131.070536,5.0579263" id="Fill-22"></path>
                    <path d="M4.49031442,20.7746074 L4.99353932,23.8326664 L2.51612446,23.8326664 L4.49031442,20.7746074 Z M0.967740178,26.2320169 L2.05160918,24.6455681 L5.10966814,24.6455681 L5.4580546,26.2320169 L6.46514955,26.2320169 L5.18708735,19.9229961 L4.18063757,19.9229961 L0,26.2320169 L0.967740178,26.2320169 Z" id="Fill-25"></path>
                    <path d="M50.5550049,23.2518932 L50.5937146,22.8647972 L50.4775857,22.5938299 C49.2433944,21.6660897 48.3395251,23.2835061 48.2317834,24.4131815 L48.2317834,25.0712448 L48.3098477,25.342212 L48.3872669,25.5351149 L48.5801698,25.6899533 L48.8130726,25.7680177 L49.1221043,25.8067273 L49.3162975,25.7680177 L49.5098456,25.7680177 L49.8188773,25.5351149 L49.9356512,25.3809216 L50.0898445,25.2260832 L50.1672637,25.0325352 L50.2453281,24.8002775 L51.1350039,24.8002775 L51.0188751,25.1480188 L50.7866174,25.4970505 C49.9233932,26.7344676 47.053721,26.933822 47.3033979,24.5673747 L47.3808172,24.1035046 L47.496946,23.6389893 L47.7292036,23.174474 L47.9614613,22.7867328 L48.2711381,22.4002819 L48.6195246,22.1293146 L49.0453303,21.897057 L49.54791,21.7422186 L50.0517801,21.703509 C50.7588755,21.6589929 50.9279075,21.8654442 51.3672615,22.3228627 L51.4446807,22.5938299 L51.4833904,22.9035068 L51.4446807,23.2518932 L50.5550049,23.2518932" id="Fill-27"></path>
                    <path d="M52.606098,24.064666 L52.6835172,23.7162795 L52.799646,23.367893 C53.4480319,21.8866054 55.724802,21.9117667 55.3931897,23.7162795 L55.3544801,24.064666 L55.2383513,24.4130524 C54.8602874,26.2272427 52.3338404,26.2536942 52.5286788,24.7227293 L52.5286788,24.4130524 L52.606098,24.064666 Z M54.4641591,21.7033799 L53.9222246,21.7033799 L53.4577094,21.8582184 L52.9931941,22.0898308 L52.606098,22.3607981 L52.3351307,22.7098297 L52.0254539,23.0969258 L51.8319059,23.5620862 L51.715777,24.064666 L51.6383578,24.5672457 C51.5796482,25.3930507 51.8151317,25.8201466 52.5286788,26.2317588 L52.91642,26.3485328 L53.4577094,26.3872424 L53.9996439,26.3485328 C55.9331887,26.1775654 57.3964119,22.9459583 55.4318993,21.8582184 L55.0060936,21.7033799 L54.4641591,21.7033799 L54.4641591,21.7033799 Z" id="Fill-29"></path>
                    <path d="M58.2966038,22.4775721 L58.3353134,22.4775721 C58.9004737,21.5749931 60.6669221,21.3027355 61.1998243,22.3607981 L61.2385339,22.5549913 L61.4314368,22.3607981 C62.2269192,21.3498322 64.6553019,21.3640257 64.3346573,23.1362806 L63.6772392,26.2317588 L62.7869182,26.2317588 L63.3669172,23.6775699 L63.4062719,23.4453123 C63.5262717,22.7291845 63.2288529,22.2891853 62.4385317,22.4001529 L62.2836933,22.4001529 L62.1282097,22.4388625 C61.415953,22.7975715 61.3043403,23.0601517 61.1224051,23.8330535 L61.0830503,23.9872468 L60.5804706,26.2317588 L59.7288593,26.2317588 L60.2707938,23.6775699 L60.3095034,23.367893 C60.4869224,22.6833782 60.1178908,22.307895 59.4185372,22.4001529 L59.264344,22.4001529 L59.0707959,22.4388625 C58.2946683,22.8853133 58.2185394,22.9917647 58.0256365,23.8330535 L57.9862818,23.9872468 L57.5224116,26.2317588 L56.6320907,26.2317588 L57.5998309,21.8582184 L58.4507971,21.8582184 L58.2966038,22.4775721" id="Fill-31"></path>
                    <path d="M68.8251653,24.064666 L68.5935528,24.6840197 C68.1748439,25.9724044 65.7767837,26.5291776 66.116138,24.3743428 L66.2703312,23.7549891 C66.6542015,22.0466051 68.9806489,21.7459605 68.8645201,23.4453123 L68.8645201,23.7549891 L68.8251653,24.064666 Z M64.4122701,27.9356267 L65.3025911,27.9356267 L65.805816,25.7685338 L65.8838803,25.9227271 L66.0387188,26.0395011 L66.1542024,26.1936944 L66.3477505,26.2317588 L66.4645244,26.3098232 L66.6580725,26.3485328 L66.8129109,26.3872424 L66.9671042,26.3872424 L67.5483934,26.3098232 C68.3561339,26.2536942 69.1012938,25.5936954 69.4058094,24.8775677 L69.561293,24.4904716 L69.6767767,24.064666 L69.754841,23.5995055 L69.754841,23.174345 L69.7161314,22.7872489 L69.561293,22.4001529 L69.367745,22.1291856 L69.0961326,21.8975731 L68.7483913,21.7420895 L68.2832308,21.7033799 C67.377426,21.6762832 67.7858124,21.7349928 67.0445234,21.9743472 L66.889685,22.1685404 L66.6961369,22.3227336 L66.5412985,22.5549913 L66.4645244,22.5549913 L66.6580725,21.8582184 L65.7283967,21.8582184 L65.7283967,22.0517664 L65.6129131,22.6317653 L64.4122701,27.9356267 L64.4122701,27.9356267 Z" id="Fill-33"></path>
                    <path d="M73.1611574,24.1036982 L73.0837382,24.4127299 L72.9669642,24.7224067 C72.6998679,25.5365988 72.1127722,25.9178884 71.2643867,25.7682113 L70.9934194,25.5740181 L70.8379358,25.3424056 C70.8792261,24.465633 71.2863221,24.2462785 72.0766433,24.1424078 L72.2708365,24.1036982 L73.1611574,24.1036982 Z M72.502449,23.523054 L72.0766433,23.5617637 L71.6514828,23.5998281 L71.3030963,23.7546665 L70.9160002,23.8714405 L70.5669686,24.1036982 L70.2966465,24.3746654 L70.0637437,24.7224067 L69.9095504,25.1101479 L69.8701957,25.4191796 L69.9095504,25.6901469 L70.2185821,26.0778881 L70.4121302,26.2320814 C71.104387,26.4727261 71.9018049,26.4436939 72.502449,25.9998237 L72.6579325,25.8069209 L72.8514806,25.6133728 L72.8514806,25.7682113 L72.812771,25.9224045 L72.812771,26.0391785 L72.7734162,26.2320814 L72.812771,26.2320814 L72.8514806,26.270791 L72.9288998,26.2320814 L73.5869631,26.2320814 L73.6256727,25.9998237 L73.7030919,25.7682113 L73.7411564,25.5353085 L74.2063168,23.212732 L74.2450264,22.7869264 L74.2063168,22.439185 L74.0895428,22.1682178 L73.89664,21.9740246 L73.3547055,21.7424121 C72.4050298,21.6301543 71.6476118,21.6514445 70.9547098,22.3998303 L70.7605166,22.7101523 L70.645033,23.0578936 L71.5740635,23.0578936 L71.7282568,22.7482167 L71.9611596,22.5159591 L72.2321269,22.3611207 L72.5418037,22.3224111 L72.8514806,22.3611207 L73.1218027,22.3998303 L73.3547055,22.6320879 L73.3927699,22.825636 L73.3927699,23.0578936 L73.3547055,23.2901512 L73.2772863,23.523054 L72.502449,23.523054 L72.502449,23.523054 Z" id="Fill-35"></path>
                    <path d="M76.3352807,22.5160236 L76.5288287,22.3224756 C77.2907628,21.2631227 79.7178552,21.5076384 79.3159204,23.2127965 L78.6578571,26.2321459 L77.7675362,26.2321459 L78.3868899,23.4837638 L78.3868899,23.2521513 C78.4752768,22.5953783 78.1333419,22.3386046 77.4965689,22.3998948 L77.2636661,22.3998948 L76.993344,22.477314 C76.5036675,22.6508621 76.2978614,23.0953774 76.1030231,23.5231186 L76.0256038,23.8327954 L75.4836693,26.2321459 L74.6707676,26.2321459 L75.6385078,21.8579603 L76.4514095,21.8579603 L76.3352807,22.5160236" id="Fill-37"></path>
                    <polygon id="Fill-39" points="80.8255306 28.0131104 79.9352096 28.0131104 81.0190786 26.2318233 80.0894029 21.8582829 81.0571431 21.8582829 81.7158516 25.3421475 83.9603636 21.8582829 84.8900394 21.8582829"></polygon>
                    <polygon id="Fill-41" points="16.1806803 26.2319524 13.3935886 26.2319524 13.7032654 21.9738956 13.5871366 21.9738956 12.0000427 26.2319524 9.21295101 26.2319524 9.21295101 19.9229316 11.4968178 19.9229316 11.1484314 24.0255047 11.2258506 24.0255047 12.7742349 19.9229316 15.4451978 19.9229316 15.1742305 24.0255047 15.2516497 24.0255047 16.7613244 19.9229316 19.0064816 19.9229316"></polygon>
                    <path d="M33.0191013,26.2319524 L32.7874888,26.2319524 L32.5939408,26.2713071 C32.2152318,26.347436 31.494588,26.451952 31.1229757,26.3487263 L30.9294277,26.3487263 L30.7739441,26.2713071 L30.6191057,26.2319524 L30.503622,26.1938879 L30.386848,26.1158235 L30.2326548,25.884211 L30.1552355,25.6900179 L30.1158808,25.4584054 L30.1552355,25.2261477 L30.6191057,23.1745386 L30.6584604,23.0971193 L30.0391067,23.0971193 L30.310074,21.8971215 L30.9294277,21.8971215 L30.9294277,21.8584119 L31.083621,21.161639 L33.3674878,20.3874468 L33.0584561,21.8190571 L33.0584561,21.8971215 L34.0642607,21.8971215 L33.8326482,23.0971193 L32.7481341,23.0971193 L32.7481341,23.1358289 L32.4391024,24.4906652 L32.3997476,24.6455036 L32.4391024,24.7616324 L32.4391024,24.8771161 L32.5165216,24.9164709 C32.7965211,25.1158253 32.7984566,25.0067933 33.1739397,25.0325997 L33.2900686,24.9932449 L33.0191013,26.2319524" id="Fill-43"></path>
                    <path d="M45.0194666,24.5674392 L44.8646282,24.9932449 L44.6317254,25.3809862 L44.3607581,25.6900179 L44.0517264,25.9609851 L43.6259208,26.1551783 L43.1226959,26.2713071 L42.5807614,26.3487263 L41.9994721,26.3867908 L41.6517308,26.3867908 L41.3420539,26.3487263 L41.0710867,26.2713071 L40.838829,26.2319524 L40.645281,26.1551783 C40.0181854,25.8655014 39.7285085,25.2803412 39.75496,24.606794 L39.8323793,24.0648595 L40.0259273,23.522925 L40.2581849,23.0577646 C40.9633449,21.9590569 42.5233421,21.604864 43.7420496,21.7809927 L44.0123717,21.8190571 L44.2452745,21.8971215 C44.7117252,21.9397021 45.3181757,22.5655074 45.2510791,23.0577646 L45.2510791,23.6390538 L43.2775343,23.6390538 L43.3155987,23.3680866 L43.3155987,22.9809905 L43.2388247,22.8648617 L43.1614055,22.8261521 L43.1226959,22.7867973 L43.006567,22.7487329 L42.7743094,22.7487329 L42.619471,22.7867973 L42.5033422,22.8648617 L42.4252778,22.9809905 L42.3097941,23.1745386 L42.1936653,23.4067962 L42.1162461,23.7164731 L41.9994721,24.1035691 L41.922698,24.3358268 L41.8839884,24.5293748 L41.8839884,25.1100189 L41.922698,25.2261477 L41.9994721,25.3035669 C42.2343104,25.4396957 42.2504394,25.3777604 42.5420518,25.3422765 L42.7743094,25.1874381 L42.9291478,24.9164709 L43.0446315,24.606794 L45.0194666,24.5674392" id="Fill-45"></path>
                    <path d="M22.9933131,22.2066693 L22.8771843,22.1292501 L22.7223458,22.0131213 C22.3494433,21.8492506 21.929444,21.7866701 21.5229932,21.7421541 L21.1746067,21.7421541 L20.6326722,21.7808637 C20.0804151,21.7511863 19.19332,22.0595728 18.8513851,22.515701 L18.6197726,22.7866683 L18.5029986,23.0969903 L20.244931,23.0969903 L20.361705,22.8647327 L20.4778338,22.7486038 L20.6707366,22.6318299 L21.0971875,22.6318299 L21.2520259,22.7866683 L21.2900904,22.8647327 L21.2900904,23.0576355 L21.1746067,23.522796 L21.1746067,23.5621508 L20.8642847,23.5621508 C19.4159002,23.4608606 17.0946141,24.2550527 18.0384834,26.0002108 L18.1159026,26.0769849 L18.2320314,26.1550493 C18.9068689,26.5421453 19.7649318,26.4098875 20.3997694,26.0002108 L20.555253,25.8453724 L20.6707366,25.7679532 L20.6707366,25.9227916 L20.6326722,26.2318233 L22.4907333,26.2318233 L23.1481515,23.2518287 L23.1875063,23.0576355 L23.1875063,22.5550558 L23.1481515,22.4002174 L23.0707323,22.3227982 L22.9933131,22.2066693 Z M20.9036395,24.7221486 L20.7868655,24.9550514 L20.6326722,25.1873091 L20.361705,25.3421475 L20.0133185,25.4195667 L19.8584801,25.4195667 L19.7810608,25.380212 L19.664932,25.3421475 L19.5875128,25.3034379 L19.5100936,25.1873091 L19.5100936,24.800213 L19.5875128,24.6453746 L19.8191253,24.4124718 L20.1294473,24.2582785 L20.3223502,24.2195689 L20.555253,24.2195689 L20.9810587,24.1808593 L21.0578327,24.1808593 L20.9036395,24.7221486 L20.9036395,24.7221486 Z" id="Fill-47"></path>
                    <path d="M29.1872373,22.1682178 L29.0711085,22.0901534 L28.9936893,21.9740246 C28.6014319,21.8140249 28.6969156,21.8359603 28.2582067,21.7424121 L27.8711107,21.7424121 L27.6775626,21.7804766 L27.4833694,21.8191862 L27.2904666,21.8972505 L27.0969185,21.9359602 L26.9033705,22.0133794 L26.7872417,22.128863 L26.5936936,22.2449919 L26.4775648,22.3998303 L26.5156293,22.2069274 L27.0582089,19.9224154 L24.8904709,19.9224154 L23.4969251,26.2320814 L25.5098246,26.2320814 L25.6259535,25.8069209 L25.6259535,25.6514373 L25.7420823,25.7682113 C27.6401433,27.8978848 30.3698158,24.3372461 29.3033661,22.3611207 L29.1872373,22.1682178 Z M27.445305,24.1036982 L27.3678858,24.3353106 L27.2124022,24.7224067 L27.1743377,24.9165999 L26.9033705,25.1875672 L26.7485321,25.2643412 L26.554984,25.3030508 L26.2840168,25.2643412 L26.0904687,25.0714383 L26.0904687,24.6456327 L26.1291783,24.4127299 L26.2065976,24.0643434 L26.244662,23.7933761 L26.2840168,23.5998281 L26.3227264,23.4836993 L26.4001456,23.3288609 C26.607242,22.966926 26.7653062,22.8120876 27.1743377,22.8649907 L27.251757,22.8649907 L27.3678858,22.9417648 L27.4833694,23.0578936 L27.4833694,23.1746676 L27.5227242,23.2901512 L27.5227242,23.4069252 L27.4833694,23.523054 L27.4833694,23.909505 L27.445305,24.1036982 L27.445305,24.1036982 Z" id="Fill-49"></path>
                    <path d="M39.0196065,22.3226046 L38.8647681,22.1684113 L38.7486393,22.090347 C36.8015461,21.0948649 33.7847773,22.2038952 33.9099384,24.8387291 L33.9099384,25.0716319 L33.948648,25.2638896 L34.0260672,25.4193732 C34.1905831,25.8225983 34.5467114,26.1058235 34.9544526,26.2316298 L35.1486458,26.2709845 L35.4583227,26.3484038 C36.3034824,26.4561455 37.582835,26.3284038 38.2834788,25.8064693 L38.5544461,25.5742116 L38.8254133,25.3032444 L39.0196065,24.9161483 L37.1609002,24.9161483 L37.006707,25.1484059 L36.8131589,25.3032444 L36.6583205,25.3425991 L36.4647725,25.3806636 L36.309934,25.3806636 L36.1550956,25.3425991 L36.0770312,25.3425991 L35.9615476,25.2638896 L35.8841284,25.1096963 L35.8841284,24.8387291 L35.9221928,24.6064714 L35.9615476,24.451633 L35.9615476,24.4129234 L39.1737998,24.4129234 L39.2131546,24.3355042 C39.2402513,23.6632473 39.5325088,23.2755061 39.1357354,22.477443 L39.0196065,22.3226046 Z M37.7034799,23.367764 L37.5867059,23.5619572 L36.1550956,23.5619572 L36.1931601,23.3284092 L36.3479985,23.0193775 L36.5415465,22.7871199 L36.8131589,22.6316363 L37.1228358,22.594217 L37.2776742,22.6316363 L37.393803,22.6316363 L37.5092867,22.7103458 L37.5867059,22.7871199 L37.7034799,23.0193775 L37.7034799,23.367764 L37.7034799,23.367764 Z" id="Fill-51"></path>
                </g>
            </g>
        </g>
    </g>
</svg>