<?xml version="1.0" encoding="UTF-8" standalone="no"?>
<svg width="49px" height="60px" viewBox="0 0 49 60" version="1.1" xmlns="http://www.w3.org/2000/svg" xmlns:xlink="http://www.w3.org/1999/xlink">
    <!-- Generator: Sketch 3.7.2 (28276) - http://www.bohemiancoding.com/sketch -->
    <title>reliability-icon</title>
    <desc>Created with Sketch.</desc>
    <defs></defs>
    <g id="Health-&amp;-Status-Monitoring-New" stroke="none" stroke-width="1" fill="none" fill-rule="evenodd">
        <g id="reports" transform="translate(-1052.000000, -181.000000)" fill="#696969">
            <g id="Reliability-Card" transform="translate(910.000000, 139.000000)">
                <path d="M187.312952,64.8185511 L169.560407,81.2722254 L166.228298,84.3630019 C165.771782,84.7876673 165.21365,85 164.563001,85 C163.909319,85 163.354221,84.7876673 162.897705,84.3630019 L159.562562,81.2722254 L150.685532,73.0446852 C150.229016,72.6200198 150,72.1067653 150,71.5007031 C150,70.8932347 150.229016,70.378574 150.685532,69.9539087 L154.025225,66.8631321 C154.478707,66.4398729 155.032289,66.2275402 155.690521,66.2275402 C156.341169,66.2275402 156.899302,66.4398729 157.355817,66.8631321 L164.563001,73.5677829 L180.642666,58.6355919 C181.100698,58.2137389 181.657314,58 182.307962,58 C182.963161,58 183.516743,58.2137389 183.974775,58.6355919 L187.312952,61.7277746 C187.766434,62.15244 188,62.6671007 188,63.2717567 C188,63.879225 187.766434,64.3938857 187.312952,64.8185511 M166.500577,42 C164.482578,42 150.197375,52.6665 142.04654,52.6665 C142.04654,56.9535 141.682103,61.941 142.992852,75 C143.939163,84.42 165.515215,102 166.500577,102 C167.485939,102 189.060459,84.42 190.006771,75 C191.319051,61.941 190.953082,56.9535 190.953082,52.6665 C182.802247,52.6665 168.518576,42 166.500577,42 Z" id="reliability-icon"></path>
            </g>
        </g>
    </g>
</svg>